<?xml version="1.0" encoding="UTF-8"?>
<svg id="Layer_2" data-name="Layer 2" xmlns="http://www.w3.org/2000/svg" viewBox="0 0 310.87 188.12">
  <defs>
    <style>
      .cls-1 {
        fill: #fff;
      }
    </style>
  </defs>
  <g id="Layer_1-2" data-name="Layer 1">
    <rect class="cls-1" y=".18" width="4.25" height="177.77"/>
    <g>
      <path class="cls-1" d="M74.02,23.72c-2.11.88-4.51-.13-5.37-2.24-.87-2.11.13-4.55,2.24-5.43,2.07-.86,4.48.17,5.34,2.28.86,2.1-.13,4.53-2.21,5.39Z"/>
      <path class="cls-1" d="M60.97,38.41c-2.11.88-4.51-.13-5.37-2.24-.87-2.11.13-4.55,2.24-5.43,2.07-.86,4.48.17,5.34,2.28.86,2.1-.13,4.53-2.21,5.39Z"/>
      <path class="cls-1" d="M85.01,30.35c-2.11.88-4.51-.13-5.37-2.24-.87-2.11.13-4.55,2.24-5.43,2.07-.86,4.48.17,5.34,2.28.86,2.1-.14,4.53-2.21,5.39Z"/>
      <path class="cls-1" d="M92.28,41.29c-2.11.88-4.51-.13-5.37-2.24-.87-2.11.13-4.55,2.24-5.43,2.07-.86,4.48.17,5.34,2.28.86,2.1-.13,4.53-2.21,5.39Z"/>
      <path class="cls-1" d="M61.56,10.52h.01s5.19,2.74,5.19,2.74v-7.74l-5.19,1.66-.02-.02c-.15-.19-.31-.37-.5-.52v-.02s2.07-6.64,2.07-6.64h-7.49l2.09,6.64-.02.02c-.19.15-.36.32-.5.52l-.02.02-5.18-1.66v7.74l5.19-2.75h.01c.15.21.33.4.54.55l-2.98,9.09s0,.02-.01.03h0c-.14.46-.21.94-.21,1.44,0,2.46,1.8,4.49,4.13,4.84.03,0,.07.01.11.02.2.03.4.04.61.04s.41-.02.61-.04c.03,0,.07-.01.1-.02,2.34-.35,4.14-2.38,4.14-4.84,0-.5-.08-.98-.21-1.43-.14-.45,0-.01,0-.01,0-.01,0-.02-.01-.03l-2.98-9.09c.2-.15.38-.33.54-.54"/>
      <path class="cls-1" d="M44.68,23.72c2.11.88,4.51-.13,5.37-2.24.87-2.11-.13-4.55-2.24-5.43-2.07-.86-4.48.17-5.34,2.28-.86,2.1.13,4.53,2.21,5.39Z"/>
      <path class="cls-1" d="M33.69,30.35c2.11.88,4.51-.13,5.37-2.24.87-2.11-.13-4.55-2.24-5.43-2.07-.86-4.48.17-5.34,2.28-.86,2.1.14,4.53,2.21,5.39Z"/>
      <path class="cls-1" d="M26.41,41.29c2.11.88,4.51-.13,5.37-2.24.87-2.11-.13-4.55-2.24-5.43-2.07-.86-4.48.17-5.34,2.28-.86,2.1.13,4.53,2.21,5.39Z"/>
      <path class="cls-1" d="M59.38,65.92c9.83,0,19.13.67,27.42,1.87,2.35-10,5.22-15.73,8.18-19.81l-5.57-2c.55,2.86.64,4.19.02,6.03-.92-.91-1.79-2.58-2.47-5.13l-2.7,9.08c1.64-1.14,2.91-1.88,4.36-1.92-2.57,5.59-5.78,7.03-7.86,6.64-2.54-.47-3.7-2.76-3.31-4.7.59-2.75,3.38-3.47,4.68-.27,2.49-5.14-1.74-6.74-4.46-5.22,4.18-4.22,4.66-7.96,1.29-12.5-4.7,3.63-4.76,7.23-2.64,12.3-2.75-3.18-7.02-1.47-5.48,3.66,1.98-3.1,4.6-1.15,4.19,1.79-.35,2.56-3.7,4.64-7.87,4.27-5.98-.55-6.34-4.72-6.49-8.17,1.47-.28,4.12,1.1,6.37,4.31l.83-9.63c-2.45,2.59-4.69,3.08-7.17,3.16.83-2.6,4.62-6.87,4.62-6.87h-11.9s3.79,4.26,4.62,6.87c-2.48-.08-4.71-.57-7.17-3.16l.83,9.63c2.26-3.2,4.91-4.58,6.38-4.31-.15,3.45-.51,7.62-6.49,8.17-4.17.37-7.52-1.7-7.87-4.27-.41-2.94,2.21-4.89,4.19-1.79,1.54-5.13-2.73-6.84-5.48-3.66,2.12-5.06,2.06-8.66-2.64-12.3-3.38,4.54-2.9,8.28,1.28,12.5-2.72-1.52-6.95.08-4.46,5.22,1.3-3.2,4.1-2.48,4.68.27.39,1.94-.78,4.23-3.31,4.7-2.08.39-5.29-1.05-7.86-6.64,1.45.03,2.71.77,4.36,1.92l-2.7-9.08c-.68,2.55-1.55,4.22-2.47,5.13-.62-1.84-.53-3.17.02-6.03l-5.57,2c2.96,4.08,5.82,9.81,8.17,19.81,8.29-1.2,17.59-1.87,27.41-1.87"/>
    </g>
    <path class="cls-1" d="M45.87,122.53c-1.98.78-3.97,1.17-5.98,1.17-2.55,0-4.83-.47-6.84-1.41-2.01-.94-3.72-2.04-5.12-3.63-1.4-1.59-2.47-3.42-3.21-5.49-.73-2.07-1.1-4.22-1.1-6.45,0-2.48.34-4.85,1.03-7.09.69-2.24,1.71-4.21,3.06-5.9,1.36-1.69,3.05-3.03,5.07-4.04,2.03-1,4.39-1.5,7.11-1.5,1.85,0,3.6.21,5.24.64,1.64.43,3.11,1.11,4.4,2.03,1.29.92,2.38,2.09,3.25,3.51.88,1.42,1.48,3.13,1.79,5.13h-4.55c-.22-1.31-.64-2.43-1.24-3.37-.61-.94-1.36-1.71-2.25-2.32-.89-.6-1.91-1.06-3.04-1.36-1.13-.3-2.34-.45-3.61-.45-2.07,0-3.85.41-5.34,1.24-1.48.83-2.7,1.92-3.64,3.27-.94,1.35-1.64,2.9-2.08,4.63-.45,1.74-.67,3.51-.67,5.32s.25,3.49.77,5.13c.51,1.64,1.26,3.09,2.25,4.35.99,1.26,2.21,2.26,3.66,3.01,1.45.75,3.13,1.12,5.05,1.12,1.79,0,3.37-.29,4.74-.86,1.37-.57,2.53-1.36,3.47-2.36.94-1,1.65-2.18,2.13-3.53.48-1.35.69-2.08.62-3.64h-10.91v-3.82h14.64v17.83h-3.73v-4.85c-1.35,1.78-3,2.9-4.98,3.68Z"/>
    <path class="cls-1" d="M59.18,106.16c.51-1.54,1.28-2.88,2.3-4.02,1.02-1.14,2.28-2.03,3.78-2.68,1.5-.65,3.22-.98,5.17-.98s3.71.33,5.19.98,2.73,1.55,3.76,2.68c1.02,1.14,1.79,2.47,2.3,4.02.51,1.54.77,3.2.77,4.97s-.26,3.42-.77,4.95c-.51,1.53-1.28,2.86-2.3,3.99-1.02,1.14-2.27,2.02-3.76,2.66s-3.21.96-5.19.96-3.67-.32-5.17-.96c-1.5-.64-2.76-1.52-3.78-2.66-1.02-1.14-1.79-2.47-2.3-3.99-.51-1.52-.77-3.18-.77-4.95s.25-3.43.77-4.97ZM63.32,115.04c.4,1.14.95,2.09,1.65,2.85.7.76,1.52,1.35,2.46,1.75.94.4,1.94.61,2.99.61s2.05-.2,2.99-.61c.94-.4,1.76-.99,2.46-1.75.7-.76,1.25-1.71,1.65-2.85.4-1.14.6-2.44.6-3.9s-.2-2.76-.6-3.9c-.4-1.14-.95-2.09-1.65-2.87-.7-.78-1.52-1.37-2.46-1.77-.94-.4-1.94-.61-2.99-.61s-2.05.2-2.99.61c-.94.4-1.76,1-2.46,1.77-.7.78-1.25,1.74-1.65,2.87-.4,1.14-.6,2.44-.6,3.9s.2,2.76.6,3.9Z"/>
    <path class="cls-1" d="M154.92,98.51v4.36h.1c1.69-2.93,4.37-4.39,8.04-4.39,1.63,0,2.98.22,4.07.65,1.08.44,1.96,1.04,2.63,1.82.67.78,1.14,1.7,1.41,2.78.27,1.07.41,2.26.41,3.57v16.39h-4.07v-16.86c0-1.49-.45-2.68-1.34-3.55-.89-.87-2.12-1.31-3.68-1.31-1.24,0-2.32.19-3.23.56-.91.37-1.67.9-2.27,1.59-.61.69-1.06,1.49-1.36,2.4-.3.92-.45,1.92-.45,3.01v14.15h-4.07v-25.19h3.83Z"/>
    <path class="cls-1" d="M180.05,98.51v4.1h.1c1.85-2.74,4.51-4.1,7.99-4.1,1.53,0,2.92.31,4.16.93,1.24.62,2.12,1.68,2.63,3.17.83-1.31,1.92-2.32,3.28-3.03,1.36-.71,2.85-1.07,4.47-1.07,1.24,0,2.37.13,3.37.4,1.01.26,1.87.68,2.58,1.24s1.28,1.28,1.68,2.17c.4.89.6,1.95.6,3.19v18.19h-4.07v-16.33c0-.75-.06-1.45-.19-2.1-.13-.65-.37-1.22-.72-1.7-.35-.48-.84-.86-1.46-1.14s-1.43-.42-2.42-.42c-2.01,0-3.59.56-4.74,1.68-1.15,1.12-1.72,2.61-1.72,4.48v15.53h-4.07v-16.33c0-.78-.07-1.49-.21-2.15s-.39-1.22-.74-1.7c-.35-.48-.82-.85-1.41-1.12-.59-.26-1.35-.4-2.27-.4-1.18,0-2.19.23-3.04.7-.85.47-1.53,1.03-2.06,1.68s-.91,1.33-1.15,2.03-.36,1.28-.36,1.75v15.53h-4.07v-25.19h3.83Z"/>
    <path class="cls-1" d="M233.3,121.64c-1.85,1.37-4.18,2.05-6.99,2.05-1.98,0-3.69-.31-5.14-.93-1.45-.62-2.67-1.49-3.66-2.61-.99-1.12-1.73-2.46-2.23-4.02-.5-1.56-.77-3.25-.84-5.09,0-1.84.29-3.52.86-5.04.57-1.52,1.38-2.85,2.42-3.97,1.04-1.12,2.27-1.99,3.69-2.61,1.42-.62,2.97-.93,4.67-.93,2.2,0,4.03.44,5.48,1.33s2.62,2.02,3.49,3.39c.88,1.37,1.48,2.86,1.82,4.48.34,1.62.47,3.16.41,4.62h-18.52c-.03,1.06.1,2.06.38,3.01.29.95.75,1.79,1.39,2.52.64.73,1.45,1.32,2.44,1.75.99.44,2.15.65,3.49.65,1.72,0,3.13-.39,4.24-1.17,1.1-.78,2.22-1.96,2.58-3.55h4.02c-.54,2.71-2.14,4.75-3.99,6.12ZM232.32,106.14c-.37-.84-.86-1.56-1.48-2.17-.62-.61-1.36-1.09-2.2-1.45-.85-.36-1.78-.54-2.8-.54s-2,.18-2.85.54c-.84.36-1.57.85-2.18,1.47-.61.62-1.09,1.35-1.44,2.17-.35.83-.56,1.7-.62,2.64h14.21c-.06-.93-.28-1.82-.65-2.66Z"/>
    <path class="cls-1" d="M244.65,98.51v4.36h.1c1.69-2.93,4.37-4.36,8.04-4.36,1.63,0,2.98.19,4.07.63,1.08.44,1.96,1.04,2.63,1.82.67.78,1.14,1.7,1.41,2.78.27,1.07.41,2.26.41,3.57v16.39h-4.07v-16.86c0-1.49-.45-2.68-1.34-3.55-.89-.87-2.12-1.31-3.69-1.31-1.24,0-2.32.19-3.23.56-.91.37-1.67.9-2.27,1.59-.61.69-1.06,1.49-1.36,2.4-.3.92-.46,1.92-.46,3.01v14.15h-4.07v-25.19h3.83Z"/>
    <path class="cls-1" d="M35.35,144.11c5.26,0,9.32,1.34,12.15,4.02,2.84,2.68,4.26,6.76,4.26,12.25,0,2.87-.32,5.42-.96,7.63-.64,2.22-1.63,4.08-2.97,5.6-1.34,1.52-3.05,2.67-5.12,3.47-2.07.8-4.53,1.2-7.37,1.2h-11.72v-34.17h11.72ZM35.73,174.45c.51,0,1.15-.04,1.91-.12.77-.08,1.58-.27,2.44-.57.86-.3,1.71-.74,2.56-1.32.84-.57,1.6-1.36,2.27-2.35.67-.99,1.22-2.23,1.65-3.71.43-1.48.65-3.28.65-5.38s-.2-3.87-.6-5.48c-.4-1.61-1.05-2.98-1.96-4.12-.91-1.13-2.08-1.99-3.52-2.58-1.44-.59-3.21-.88-5.31-.88h-7.66v26.51h7.56Z"/>
    <path class="cls-1" d="M56.3,148.18v-4.07h4.07v4.07h-4.07ZM60.36,152.99v25.31h-4.07v-25.31h4.07Z"/>
    <path class="cls-1" d="M83.81,185.1c-1.85,2.01-4.75,3.02-8.71,3.02-1.15,0-2.32-.13-3.52-.38-1.2-.26-2.28-.67-3.25-1.24-.97-.57-1.78-1.32-2.42-2.25-.64-.93-.99-2.06-1.05-3.4h4.07c.03.73.26,1.36.69,1.87.43.51.96.92,1.58,1.24.62.32,1.3.55,2.03.69.73.14,1.44.21,2.11.21,1.34,0,2.47-.23,3.4-.69.92-.46,1.69-1.1,2.3-1.91.61-.81,1.04-1.79,1.32-2.94.27-1.15.41-2.41.41-3.78v-1.63h-.1c-.7,1.53-1.76,2.5-3.18,3.22-1.42.72-2.93,1.08-4.52,1.08-1.85,0-3.46-.34-4.83-1.01-1.37-.67-2.52-1.41-3.45-2.55-.93-1.13-1.62-2.46-2.08-3.97-.46-1.51-.69-3.12-.69-4.81,0-1.47.19-2.97.57-4.52.38-1.55,1.02-2.95,1.91-4.21.89-1.26,2.07-2.11,3.54-2.92,1.47-.81,3.27-1.22,5.41-1.22,1.56,0,3,.34,4.31,1.03,1.31.69,2.33,1.53,3.06,2.9h.05v-3.93h3.83v23.02c0,4.05-.93,7.08-2.78,9.09ZM78.62,173.97c.94-.56,1.7-1.29,2.27-2.2s1-1.94,1.27-3.09c.27-1.15.41-2.3.41-3.45,0-1.08-.13-2.15-.38-3.21-.26-1.05-.66-2-1.22-2.85-.56-.84-1.28-1.52-2.18-2.03-.89-.51-1.98-.77-3.25-.77s-2.42.25-3.35.74c-.93.5-1.68,1.16-2.27,1.99-.59.83-1.02,1.79-1.29,2.87-.27,1.09-.41,2.22-.41,3.4,0,1.12.11,2.23.34,3.35.22,1.12.61,2.13,1.15,3.04.54.91,1.26,1.64,2.15,2.2.89.56,2.01.84,3.35.84s2.48-.28,3.42-.84Z"/>
    <path class="cls-1" d="M91.12,148.18v-4.07h4.07v4.07h-4.07ZM95.19,152.99v25.22h-4.07v-25.22h4.07Z"/>
    <path class="cls-1" d="M111.3,152.99v3.59h-4.93v15.83c0,.48.04.86.12,1.15.08.29.23.51.45.67.22.16.53.26.93.31.4.05.92.07,1.56.07h1.87v3.59h-3.11c-1.05,0-1.95-.07-2.7-.21-.75-.14-1.36-.41-1.82-.79-.46-.38-.81-.92-1.03-1.63-.22-.7-.34-1.63-.34-2.77v-16.21h-4.21v-3.59h4.21v-6.95h4.07v6.95h4.93Z"/>
    <path class="cls-1" d="M137,178.16c-.8,0-1.68,0-2.92,0-1.05,0-1.89-.29-2.51-.86-.62-.57-.93-1.62-.93-2.92-1.12,1.3-2.42,2.34-3.9,2.92-1.48.57-3.09.86-4.81.86-1.12,0-2.18-.12-3.18-.37-1.01-.25-1.87-.51-2.61-1.04-.73-.53-1.32-1.21-1.75-2.06-.43-.85-.65-2.11-.65-3.32,0-1.36.24-2.48.72-3.34.48-.87,1.11-1.57,1.89-2.11.78-.54,1.68-.95,2.68-1.23,1.01-.28,2.03-.51,3.09-.7,1.12-.22,2.18-.38,3.18-.49,1.01-.11,1.89-.26,2.66-.46.77-.2,1.37-.49,1.82-.88.45-.39.67-.95.67-1.69,0-.87-.17-1.56-.5-2.09-.34-.53-.77-.93-1.29-1.21-.53-.28-1.12-.46-1.77-.56-.65-.09-1.3-.14-1.94-.14-1.72,0-3.16.32-4.31.95-1.15.63-1.77,1.83-1.87,3.6h-4.07c.06-1.49.38-2.74.96-3.76s1.34-1.85,2.3-2.48c.96-.63,2.05-1.09,3.28-1.37,1.23-.28,2.54-.42,3.95-.42,1.12,0,2.23.08,3.33.23,1.1.15,2.1.47,2.99.95.89.48,1.61,1.15,2.15,2.01.54.86.81,1.99.81,3.38v12.32c0,.93.06,1.61.17,2.04.11.43.49.58,1.12.65q.35.04,1.24.04v3.55ZM130.4,165.15c-.51.37-1.18.64-2.01.81-.83.17-1.7.31-2.61.42-.91.11-1.83.23-2.75.37-.93.14-1.76.36-2.49.67-.73.31-1.33.75-1.79,1.32-.46.57-.69,1.35-.69,2.33,0,.65.14,1.19.41,1.64.27.45.62.81,1.05,1.09s.93.48,1.51.6,1.18.18,1.82.18c1.34,0,2.49-.18,3.45-.53s1.74-.8,2.34-1.34c.61-.54,1.05-1.12,1.34-1.75s.43-1.22.43-1.78v-4.02Z"/>
    <path class="cls-1" d="M143.61,144.11v34.09h-4.07v-34.09h4.07Z"/>
    <path class="cls-1" d="M178.47,149.4c-1.46-1.05-3.34-1.57-5.62-1.57-.92,0-1.83.09-2.73.27-.89.18-1.69.49-2.38.91-.69.43-1.25,1-1.66,1.71s-.62,1.6-.62,2.67c0,1,.3,1.82.9,2.44.6.62,1.4,1.13,2.4,1.53,1,.4,2.13.72,3.4.98,1.26.26,2.55.54,3.86.84,1.31.3,2.6.66,3.86,1.07,1.26.41,2.4.97,3.4,1.66,1,.7,1.8,1.58,2.4,2.64.6,1.06.9,2.4.9,4.01,0,1.73-.39,3.21-1.18,4.44-.79,1.23-1.8,2.23-3.03,3.01-1.23.77-2.61,1.34-4.14,1.69-1.53.35-3.04.52-4.55.52-1.85,0-3.6-.23-5.25-.68-1.65-.46-3.1-1.15-4.34-2.07-1.25-.93-2.23-2.11-2.96-3.55-.72-1.44-1.09-3.15-1.09-5.13h4.16c0,1.37.27,2.54.81,3.53.54.99,1.25,1.8,2.13,2.44.88.64,1.9,1.11,3.07,1.41,1.17.3,2.37.46,3.61.46.99,0,1.98-.09,2.98-.27,1-.18,1.9-.49,2.7-.93.8-.44,1.45-1.04,1.94-1.8.49-.76.74-1.73.74-2.92,0-1.12-.3-2.04-.9-2.73-.6-.7-1.4-1.27-2.4-1.71-1-.44-2.13-.8-3.4-1.07-1.26-.27-2.55-.55-3.86-.84-1.31-.29-2.6-.62-3.86-1-1.26-.38-2.4-.88-3.4-1.5-1-.62-1.8-1.43-2.4-2.41-.6-.99-.9-2.23-.9-3.71,0-1.64.34-3.06,1.02-4.26.68-1.2,1.58-2.19,2.7-2.96,1.12-.77,2.4-1.35,3.84-1.73,1.43-.38,2.9-.57,4.41-.57,1.69,0,3.27.2,4.71.59,1.45.4,2.72,1.02,3.81,1.87,1.09.85,1.96,1.92,2.59,3.21.63,1.29.98,2.83,1.04,4.63h-4.16c-.25-2.34-1.1-4.03-2.56-5.08Z"/>
    <path class="cls-1" d="M207.97,176.17c-1.85,1.37-4.18,2.05-6.99,2.05-1.98,0-3.69-.31-5.14-.93-1.45-.62-2.67-1.49-3.66-2.61s-1.73-2.46-2.23-4.01c-.5-1.56-.77-3.25-.84-5.09,0-1.84.29-3.52.86-5.04.57-1.52,1.38-2.85,2.42-3.97,1.04-1.12,2.27-1.99,3.69-2.61,1.42-.62,2.97-.93,4.67-.93,2.2,0,4.03.44,5.48,1.33s2.62,2.02,3.49,3.38c.88,1.37,1.48,2.86,1.82,4.48.34,1.62.47,3.16.41,4.62h-18.52c-.03,1.06.1,2.06.38,3.01.29.95.75,1.79,1.39,2.52.64.73,1.45,1.31,2.44,1.75.99.44,2.15.65,3.49.65,1.72,0,3.13-.39,4.24-1.17,1.1-.78,1.83-1.96,2.18-3.55h4.02c-.54,2.71-1.74,4.75-3.59,6.12ZM206.99,160.67c-.37-.84-.86-1.56-1.48-2.17-.62-.61-1.36-1.09-2.2-1.45-.85-.36-1.78-.54-2.8-.54s-2,.18-2.85.54c-.84.36-1.57.85-2.18,1.47-.61.62-1.09,1.35-1.44,2.17-.35.83-.56,1.7-.62,2.64h14.21c-.06-.93-.28-1.82-.65-2.66Z"/>
    <path class="cls-1" d="M219.33,153.04v5.74h.1c.99-2,2.2-3.48,3.64-4.43,1.44-.95,3.25-1.4,5.46-1.33v4.29c-1.63,0-3.01.22-4.16.67-1.15.45-2.07,1.1-2.78,1.95-.7.86-1.21,1.9-1.53,3.12-.32,1.22-.48,2.63-.48,4.22v10.96h-4.07v-25.18h3.83Z"/>
    <path class="cls-1" d="M239.39,178.23l-9.19-25.21h4.55l6.94,21.01h.1l6.75-21.01h4.26l-9.05,25.21h-4.35Z"/>
    <path class="cls-1" d="M255.33,148.15v-4.07h4.07v4.07h-4.07ZM259.4,153.02v25.21h-4.07v-25.21h4.07Z"/>
    <path class="cls-1" d="M279.12,157.78c-1.02-.84-2.39-1.26-4.12-1.26-1.47,0-2.7.26-3.69.79-.99.53-1.78,1.23-2.37,2.1-.59.87-1.01,1.88-1.27,3.01-.26,1.14-.38,2.31-.38,3.52,0,1.12.14,2.21.41,3.27.27,1.06.69,2,1.27,2.82.57.83,1.32,1.49,2.25,1.98.92.5,2.03.75,3.3.75,2.01,0,3.58-.51,4.71-1.54,1.13-1.03,1.83-2.47,2.08-4.34h4.16c-.45,2.99-1.59,5.29-3.42,6.91-1.84,1.62-4.33,2.43-7.49,2.43-1.88,0-3.55-.3-5-.89-1.45-.59-2.66-1.43-3.64-2.52-.97-1.09-1.71-2.39-2.2-3.9-.5-1.51-.74-3.17-.74-4.97s.24-3.49.72-5.06c.48-1.57,1.2-2.94,2.18-4.11.97-1.17,2.19-2.08,3.66-2.75,1.47-.67,3.17-1,5.12-1,1.4,0,2.72.16,3.95.49,1.23.33,2.31.83,3.25,1.52.94.68,1.72,1.55,2.32,2.59.61,1.04.99,2.28,1.15,3.71h-4.21c-.32-1.52-.99-2.71-2.01-3.55Z"/>
    <path class="cls-1" d="M306.88,176.17c-1.85,1.37-4.18,2.05-6.99,2.05-1.98,0-3.69-.31-5.14-.93-1.45-.62-2.67-1.49-3.66-2.61s-1.73-2.46-2.23-4.01c-.5-1.56-.77-3.25-.84-5.09,0-1.84.29-3.52.86-5.04.57-1.52,1.38-2.85,2.42-3.97,1.04-1.12,2.27-1.99,3.69-2.61,1.42-.62,2.97-.93,4.67-.93,2.2,0,4.03.44,5.48,1.33,1.45.89,2.62,2.02,3.49,3.38.88,1.37,1.48,2.86,1.82,4.48.34,1.62.47,3.16.41,4.62h-18.52c-.03,1.06.1,2.06.38,3.01.29.95.75,1.79,1.39,2.52.64.73,1.45,1.31,2.44,1.75.99.44,2.15.65,3.49.65,1.72,0,3.13-.39,4.24-1.17,1.1-.78,1.83-1.96,2.18-3.55h4.02c-.54,2.71-1.74,4.75-3.59,6.11ZM305.9,160.67c-.37-.84-.86-1.56-1.48-2.17-.62-.61-1.36-1.09-2.2-1.45-.85-.36-1.78-.54-2.8-.54s-2,.18-2.85.54c-.84.36-1.57.85-2.18,1.47-.61.62-1.09,1.35-1.44,2.17-.35.83-.56,1.7-.62,2.64h14.21c-.06-.93-.28-1.82-.65-2.66Z"/>
    <path class="cls-1" d="M276.24,98.51v3.59h-4.93v15.81c0,.48.04.86.12,1.15.08.29.23.51.45.67.22.16.53.26.93.31.4.05.92.07,1.56.07h1.87v3.59h-3.11c-1.05,0-1.95-.07-2.7-.21-.75-.14-1.36-.41-1.82-.79-.46-.38-.81-.92-1.03-1.63-.22-.7-.34-1.63-.34-2.77v-16.19h-4.21v-3.59h4.21v-6.97h4.07v6.97h4.93Z"/>
    <path class="cls-1" d="M126.12,121.64c-1.85,1.37-4.18,2.05-6.99,2.05-1.98,0-3.69-.31-5.14-.93-1.45-.62-2.67-1.49-3.66-2.61-.99-1.12-1.73-2.46-2.23-4.01-.5-1.56-.77-3.25-.84-5.09,0-1.84.29-3.52.86-5.04.57-1.52,1.38-2.85,2.42-3.97,1.04-1.12,2.27-1.99,3.69-2.61,1.42-.62,2.97-.93,4.67-.93,2.2,0,4.03.44,5.48,1.33s2.62,2.02,3.49,3.38c.88,1.37,1.48,2.86,1.82,4.48.34,1.62.47,3.16.41,4.62h-18.52c-.03,1.06.1,2.06.38,3.01.29.95.75,1.79,1.39,2.52.64.73,1.45,1.32,2.44,1.75.99.44,2.15.65,3.49.65,1.72,0,3.13-.39,4.24-1.17,1.1-.78,2.22-1.96,2.58-3.55h4.02c-.54,2.71-2.14,4.75-3.99,6.12ZM125.14,106.14c-.37-.84-.86-1.56-1.48-2.17-.62-.61-1.36-1.09-2.2-1.45-.85-.36-1.78-.54-2.8-.54s-2,.18-2.85.54c-.84.36-1.57.85-2.18,1.47-.61.62-1.09,1.35-1.44,2.17-.35.83-.56,1.7-.62,2.64h14.21c-.06-.93-.28-1.82-.65-2.66Z"/>
    <path class="cls-1" d="M92.87,123.69l-9.19-25.21h4.55l6.94,21.02h.1l6.75-21.02h4.26l-9.05,25.21h-4.35Z"/>
    <path class="cls-1" d="M138.41,98.51v5.74h.1c.99-2,2.2-3.48,3.64-4.43,1.44-.95,3.26-1.31,5.46-1.31v4.27c-1.63,0-3.01.22-4.16.67-1.15.45-2.07,1.1-2.78,1.95-.7.86-1.21,1.9-1.53,3.12-.32,1.22-.48,2.63-.48,4.22v10.96h-4.07v-25.18h3.83Z"/>
  </g>
</svg>