<svg width="380" height="240" viewBox="0 0 380 240" fill="none" xmlns="http://www.w3.org/2000/svg">
<rect width="380" height="240" fill="black"/>
<g filter="url(#filter0_d_18_2)">
<path d="M312.697 103.943L319.051 102.434L307.378 85.0857L295.153 102.434L301.508 103.943C301.508 105.314 301.162 106 300.471 106L292.114 105.726L285.967 106C285.322 106 285 105.314 285 103.943L290.18 102.434L305.168 81.7943L291.631 61.5657L286.45 60.0571C286.45 58.6857 286.796 58 287.486 58C288.453 58 290.94 58.0914 294.946 58.2743L302.336 58C303.027 58 303.372 58.6857 303.372 60.0571L298.054 61.5657L308.76 77.6114L320.087 61.5657L314.423 60.0571C314.423 58.6857 314.769 58 315.459 58L323.126 58.2743L328.514 58C329.204 58.0457 329.55 58.7314 329.55 60.0571L325.06 61.5657L311.039 80.9714L325.474 102.434L331 103.943C331 105.314 330.655 106 329.964 106C329.043 106 326.58 105.909 322.574 105.726L313.733 106C313.042 106 312.697 105.314 312.697 103.943Z" fill="white"/>
<path d="M312.697 103.943L319.051 102.434L307.378 85.0857L295.153 102.434L301.508 103.943C301.508 105.314 301.162 106 300.471 106L292.114 105.726L285.967 106C285.322 106 285 105.314 285 103.943L290.18 102.434L305.168 81.7943L291.631 61.5657L286.45 60.0571C286.45 58.6857 286.796 58 287.486 58C288.453 58 290.94 58.0914 294.946 58.2743L302.336 58C303.027 58 303.372 58.6857 303.372 60.0571L298.054 61.5657L308.76 77.6114L320.087 61.5657L314.423 60.0571C314.423 58.6857 314.769 58 315.459 58L323.126 58.2743L328.514 58C329.204 58.0457 329.55 58.7314 329.55 60.0571L325.06 61.5657L311.039 80.9714L325.474 102.434L331 103.943C331 105.314 330.655 106 329.964 106C329.043 106 326.58 105.909 322.574 105.726L313.733 106C313.042 106 312.697 105.314 312.697 103.943Z" stroke="white" stroke-width="2"/>
</g>
<path d="M77 178H94C89.3103 175.703 90.4827 126.9 90.4827 120.01C90.4827 113.12 91.203 66.2237 90.1897 58L77 69.7703C78.1724 70.9187 79.3448 78.3828 79.3448 78.3828C80.5172 88.1435 79.931 160.201 79.3448 166.23C78.7586 172.258 77 178 77 178Z" fill="white"/>
<path fill-rule="evenodd" clip-rule="evenodd" d="M256.7 147.889C270.121 118.374 256.092 83.1211 225.365 69.1483C194.637 55.1756 158.848 67.7747 145.427 97.2893C132.005 126.804 146.035 162.057 176.762 176.03C207.489 190.003 243.279 177.404 256.7 147.889ZM224.947 159.374C242.387 148.042 245.807 122.36 232.586 102.011C219.365 81.6622 194.508 74.3519 177.068 85.6832C159.628 97.0146 156.208 122.697 169.429 143.046C182.65 163.395 207.507 170.705 224.947 159.374Z" fill="white"/>
<defs>
<filter id="filter0_d_18_2" x="280" y="56.9983" width="52" height="52.0017" filterUnits="userSpaceOnUse" color-interpolation-filters="sRGB">
<feFlood flood-opacity="0" result="BackgroundImageFix"/>
<feColorMatrix in="SourceAlpha" type="matrix" values="0 0 0 0 0 0 0 0 0 0 0 0 0 0 0 0 0 0 127 0" result="hardAlpha"/>
<feOffset dx="-4" dy="2"/>
<feComposite in2="hardAlpha" operator="out"/>
<feColorMatrix type="matrix" values="0 0 0 0 0.772549 0 0 0 0 0.0313726 0 0 0 0 0.470588 0 0 0 1 0"/>
<feBlend mode="normal" in2="BackgroundImageFix" result="effect1_dropShadow_18_2"/>
<feBlend mode="normal" in="SourceGraphic" in2="effect1_dropShadow_18_2" result="shape"/>
</filter>
</defs>
</svg>
