<svg width="66" height="67" viewBox="0 0 66 67" fill="none" xmlns="http://www.w3.org/2000/svg">
<g clip-path="url(#clip0_15_611)">
<path fill-rule="evenodd" clip-rule="evenodd" d="M32.9017 0.879028C14.7079 0.879028 0 16.004 0 34.7157C0 49.673 9.42386 62.334 22.4972 66.8151C24.1318 67.152 24.7305 66.087 24.7305 65.1912C24.7305 64.4068 24.6766 61.718 24.6766 58.9164C15.5241 60.9335 13.6182 54.8828 13.6182 54.8828C12.1474 50.9613 9.96802 49.9535 9.96802 49.9535C6.97243 47.8806 10.1862 47.8807 10.1862 47.8807C13.5091 48.1048 15.2527 51.3539 15.2527 51.3539C18.1938 56.5074 22.933 55.0513 24.8396 54.1548C25.1117 51.9699 25.9838 50.4574 26.9098 49.6173C19.6101 48.8328 11.9298 45.9199 11.9298 32.9227C11.9298 29.2253 13.2364 26.2003 15.3066 23.8477C14.98 23.0076 13.8358 19.5337 15.6339 14.8841C15.6339 14.8841 18.412 13.9876 24.6759 18.3573C27.3577 17.6167 30.1234 17.2399 32.9017 17.2367C35.6797 17.2367 38.5117 17.6293 41.1268 18.3573C47.3914 13.9876 50.1694 14.8841 50.1694 14.8841C51.9676 19.5337 50.8227 23.0076 50.4961 23.8477C52.6209 26.2003 53.8735 29.2253 53.8735 32.9227C53.8735 45.9199 46.1933 48.7765 38.839 49.6173C40.0378 50.6815 41.0722 52.698 41.0722 55.8914C41.0722 60.4289 41.0183 64.0706 41.0183 65.1905C41.0183 66.087 41.6177 67.152 43.2516 66.8158C56.3249 62.3333 65.7488 49.673 65.7488 34.7157C65.8027 16.004 51.0409 0.879028 32.9017 0.879028Z" fill="#24292F"/>
</g>
<defs>
<clipPath id="clip0_15_611">
<rect width="66" height="66" fill="white" transform="translate(0 0.879028)"/>
</clipPath>
</defs>
</svg>
