<svg width="149" height="148" viewBox="0 0 149 148" fill="none" xmlns="http://www.w3.org/2000/svg">
<path d="M39.2308 124.861V126.611C39.2131 130.143 38.127 133.587 36.1153 136.49C34.1036 139.393 31.2604 141.62 27.9596 142.877C24.6588 144.134 21.0549 144.363 17.6215 143.534C14.1882 142.704 11.0862 140.855 8.72332 138.23C6.36047 135.605 4.84736 132.326 4.38292 128.824C3.91848 125.323 4.52444 121.763 6.12115 118.612C7.71785 115.462 10.2306 112.868 13.3289 111.172C16.4273 109.476 19.9663 108.758 23.4808 109.111" stroke="#124581" stroke-width="1.75" stroke-linecap="round" stroke-linejoin="round"/>
<path d="M14.7307 130.111C14.7307 130.111 17.3557 133.611 21.7307 133.611C26.1057 133.611 28.7307 130.111 28.7307 130.111" stroke="#124581" stroke-width="1.75" stroke-linecap="round" stroke-linejoin="round"/>
<path d="M16.4807 121.361H16.4982" stroke="#124581" stroke-width="1.75" stroke-linecap="round" stroke-linejoin="round"/>
<path d="M26.9807 121.361H26.9982" stroke="#124581" stroke-width="1.75" stroke-linecap="round" stroke-linejoin="round"/>
<path d="M28.7307 114.361H39.2307" stroke="#124581" stroke-width="1.75" stroke-linecap="round" stroke-linejoin="round"/>
<path d="M33.9807 109.111V119.611" stroke="#124581" stroke-width="1.75" stroke-linecap="round" stroke-linejoin="round"/>
<path d="M92.2305 124.861V126.611C92.2128 130.143 91.1267 133.587 89.115 136.49C87.1033 139.393 84.2602 141.62 80.9594 142.877C77.6586 144.134 74.0546 144.363 70.6213 143.534C67.1879 142.704 64.0859 140.855 61.7231 138.23C59.3602 135.605 57.8471 132.326 57.3827 128.824C56.9182 125.323 57.5242 121.763 59.1209 118.612C60.7176 115.462 63.2303 112.868 66.3287 111.172C69.4271 109.476 72.9661 108.758 76.4805 109.111" stroke="#0B8478" stroke-width="1.75" stroke-linecap="round" stroke-linejoin="round"/>
<path d="M67.7307 130.111C67.7307 130.111 70.3557 133.611 74.7307 133.611C79.1057 133.611 81.7307 130.111 81.7307 130.111" stroke="#0B8478" stroke-width="1.75" stroke-linecap="round" stroke-linejoin="round"/>
<path d="M69.4807 121.361H69.4982" stroke="#0B8478" stroke-width="1.75" stroke-linecap="round" stroke-linejoin="round"/>
<path d="M79.9807 121.361H79.9982" stroke="#0B8478" stroke-width="1.75" stroke-linecap="round" stroke-linejoin="round"/>
<path d="M81.7307 114.361H92.2307" stroke="#0B8478" stroke-width="1.75" stroke-linecap="round" stroke-linejoin="round"/>
<path d="M86.9807 109.111V119.611" stroke="#0B8478" stroke-width="1.75" stroke-linecap="round" stroke-linejoin="round"/>
<path d="M145.231 124.861V126.611C145.213 130.143 144.127 133.587 142.115 136.49C140.103 139.393 137.26 141.62 133.959 142.877C130.659 144.134 127.055 144.363 123.621 143.534C120.188 142.704 117.086 140.855 114.723 138.23C112.36 135.605 110.847 132.326 110.383 128.824C109.918 125.323 110.524 121.763 112.121 118.612C113.718 115.462 116.23 112.868 119.329 111.172C122.427 109.476 125.966 108.758 129.481 109.111" stroke="#C50878" stroke-width="1.75" stroke-linecap="round" stroke-linejoin="round"/>
<path d="M120.731 130.111C120.731 130.111 123.356 133.611 127.731 133.611C132.106 133.611 134.731 130.111 134.731 130.111" stroke="#C50878" stroke-width="1.75" stroke-linecap="round" stroke-linejoin="round"/>
<path d="M122.481 121.361H122.498" stroke="#C50878" stroke-width="1.75" stroke-linecap="round" stroke-linejoin="round"/>
<path d="M132.981 121.361H132.998" stroke="#C50878" stroke-width="1.75" stroke-linecap="round" stroke-linejoin="round"/>
<path d="M134.731 114.361H145.231" stroke="#C50878" stroke-width="1.75" stroke-linecap="round" stroke-linejoin="round"/>
<path d="M139.981 109.111V119.611" stroke="#C50878" stroke-width="1.75" stroke-linecap="round" stroke-linejoin="round"/>
<path d="M39.2308 71.2501V73.0001C39.2131 76.5322 38.127 79.9762 36.1153 82.8795C34.1036 85.7827 31.2604 88.0093 27.9596 89.2664C24.6588 90.5236 21.0549 90.7525 17.6215 89.9231C14.1882 89.0936 11.0862 87.2447 8.72332 84.6193C6.36047 81.9939 4.84736 78.715 4.38292 75.2135C3.91848 71.7121 4.52444 68.152 6.12115 65.0014C7.71785 61.8508 10.2306 59.2571 13.3289 57.5613C16.4273 55.8655 19.9663 55.1469 23.4808 55.5001" stroke="#EFDB5D" stroke-width="1.75" stroke-linecap="round" stroke-linejoin="round"/>
<path d="M14.7307 76.5001C14.7307 76.5001 17.3557 80.0001 21.7307 80.0001C26.1057 80.0001 28.7307 76.5001 28.7307 76.5001" stroke="#EFDB5D" stroke-width="1.75" stroke-linecap="round" stroke-linejoin="round"/>
<path d="M16.4807 67.7501H16.4982" stroke="#EFDB5D" stroke-width="1.75" stroke-linecap="round" stroke-linejoin="round"/>
<path d="M26.9807 67.7501H26.9982" stroke="#EFDB5D" stroke-width="1.75" stroke-linecap="round" stroke-linejoin="round"/>
<path d="M28.7307 60.7501H39.2307" stroke="#EFDB5D" stroke-width="1.75" stroke-linecap="round" stroke-linejoin="round"/>
<path d="M33.9807 55.5001V66.0001" stroke="#EFDB5D" stroke-width="1.75" stroke-linecap="round" stroke-linejoin="round"/>
<path d="M39.2308 20.1391V21.8891C39.2131 25.4212 38.127 28.8652 36.1153 31.7685C34.1036 34.6717 31.2604 36.8983 27.9596 38.1554C24.6588 39.4126 21.0549 39.6415 17.6215 38.8121C14.1882 37.9826 11.0862 36.1337 8.72332 33.5083C6.36047 30.8829 4.84736 27.604 4.38292 24.1025C3.91848 20.6011 4.52444 17.0411 6.12115 13.8905C7.71785 10.7399 10.2306 8.14615 13.3289 6.45033C16.4273 4.75451 19.9663 4.03595 23.4808 4.38912" stroke="#0B8478" stroke-width="1.75" stroke-linecap="round" stroke-linejoin="round"/>
<path d="M14.7307 25.3891C14.7307 25.3891 17.3557 28.8891 21.7307 28.8891C26.1057 28.8891 28.7307 25.3891 28.7307 25.3891" stroke="#0B8478" stroke-width="1.75" stroke-linecap="round" stroke-linejoin="round"/>
<path d="M16.4807 16.6391H16.4982" stroke="#0B8478" stroke-width="1.75" stroke-linecap="round" stroke-linejoin="round"/>
<path d="M26.9807 16.6391H26.9982" stroke="#0B8478" stroke-width="1.75" stroke-linecap="round" stroke-linejoin="round"/>
<path d="M28.7307 9.63911H39.2307" stroke="#0B8478" stroke-width="1.75" stroke-linecap="round" stroke-linejoin="round"/>
<path d="M33.9807 4.38911V14.8891" stroke="#0B8478" stroke-width="1.75" stroke-linecap="round" stroke-linejoin="round"/>
<path d="M92.2305 71.2501V73.0001C92.2128 76.5322 91.1267 79.9762 89.115 82.8795C87.1033 85.7827 84.2602 88.0093 80.9594 89.2664C77.6586 90.5236 74.0546 90.7525 70.6213 89.9231C67.1879 89.0936 64.0859 87.2447 61.7231 84.6193C59.3602 81.9939 57.8471 78.715 57.3827 75.2135C56.9182 71.7121 57.5242 68.152 59.1209 65.0014C60.7176 61.8508 63.2303 59.2571 66.3287 57.5613C69.4271 55.8655 72.9661 55.1469 76.4805 55.5001" stroke="#85D07E" stroke-width="1.75" stroke-linecap="round" stroke-linejoin="round"/>
<path d="M67.7307 76.5001C67.7307 76.5001 70.3557 80.0001 74.7307 80.0001C79.1057 80.0001 81.7307 76.5001 81.7307 76.5001" stroke="#85D07E" stroke-width="1.75" stroke-linecap="round" stroke-linejoin="round"/>
<path d="M69.4807 67.7501H69.4982" stroke="#85D07E" stroke-width="1.75" stroke-linecap="round" stroke-linejoin="round"/>
<path d="M79.9807 67.7501H79.9982" stroke="#85D07E" stroke-width="1.75" stroke-linecap="round" stroke-linejoin="round"/>
<path d="M81.7307 60.7501H92.2307" stroke="#85D07E" stroke-width="1.75" stroke-linecap="round" stroke-linejoin="round"/>
<path d="M86.9807 55.5001V66.0001" stroke="#85D07E" stroke-width="1.75" stroke-linecap="round" stroke-linejoin="round"/>
<path d="M92.2305 20.1391V21.8891C92.2128 25.4212 91.1267 28.8652 89.115 31.7685C87.1033 34.6717 84.2602 36.8983 80.9594 38.1554C77.6586 39.4126 74.0546 39.6415 70.6213 38.8121C67.1879 37.9826 64.0859 36.1337 61.7231 33.5083C59.3602 30.8829 57.8471 27.604 57.3827 24.1025C56.9182 20.6011 57.5242 17.0411 59.1209 13.8905C60.7176 10.7399 63.2303 8.14615 66.3287 6.45033C69.4271 4.75451 72.9661 4.03595 76.4805 4.38912" stroke="#C50878" stroke-width="1.75" stroke-linecap="round" stroke-linejoin="round"/>
<path d="M67.7307 25.3891C67.7307 25.3891 70.3557 28.8891 74.7307 28.8891C79.1057 28.8891 81.7307 25.3891 81.7307 25.3891" stroke="#C50878" stroke-width="1.75" stroke-linecap="round" stroke-linejoin="round"/>
<path d="M69.4807 16.6391H69.4982" stroke="#C50878" stroke-width="1.75" stroke-linecap="round" stroke-linejoin="round"/>
<path d="M79.9807 16.6391H79.9982" stroke="#C50878" stroke-width="1.75" stroke-linecap="round" stroke-linejoin="round"/>
<path d="M81.7307 9.63911H92.2307" stroke="#C50878" stroke-width="1.75" stroke-linecap="round" stroke-linejoin="round"/>
<path d="M86.9807 4.38911V14.8891" stroke="#C50878" stroke-width="1.75" stroke-linecap="round" stroke-linejoin="round"/>
<path d="M145.231 71.2501V73.0001C145.213 76.5322 144.127 79.9762 142.115 82.8795C140.103 85.7827 137.26 88.0093 133.959 89.2664C130.659 90.5236 127.055 90.7525 123.621 89.9231C120.188 89.0936 117.086 87.2447 114.723 84.6193C112.36 81.9939 110.847 78.715 110.383 75.2135C109.918 71.7121 110.524 68.152 112.121 65.0014C113.718 61.8508 116.23 59.2571 119.329 57.5613C122.427 55.8655 125.966 55.1469 129.481 55.5001" stroke="#924FB2" stroke-width="1.75" stroke-linecap="round" stroke-linejoin="round"/>
<path d="M120.731 76.5001C120.731 76.5001 123.356 80.0001 127.731 80.0001C132.106 80.0001 134.731 76.5001 134.731 76.5001" stroke="#924FB2" stroke-width="1.75" stroke-linecap="round" stroke-linejoin="round"/>
<path d="M122.481 67.7501H122.498" stroke="#924FB2" stroke-width="1.75" stroke-linecap="round" stroke-linejoin="round"/>
<path d="M132.981 67.7501H132.998" stroke="#924FB2" stroke-width="1.75" stroke-linecap="round" stroke-linejoin="round"/>
<path d="M134.731 60.7501H145.231" stroke="#924FB2" stroke-width="1.75" stroke-linecap="round" stroke-linejoin="round"/>
<path d="M139.981 55.5001V66.0001" stroke="#924FB2" stroke-width="1.75" stroke-linecap="round" stroke-linejoin="round"/>
<path d="M145.231 20.1391V21.8891C145.213 25.4212 144.127 28.8652 142.115 31.7685C140.103 34.6717 137.26 36.8983 133.959 38.1554C130.659 39.4126 127.055 39.6415 123.621 38.8121C120.188 37.9826 117.086 36.1337 114.723 33.5083C112.36 30.8829 110.847 27.604 110.383 24.1025C109.918 20.6011 110.524 17.0411 112.121 13.8905C113.718 10.7399 116.23 8.14615 119.329 6.45033C122.427 4.75451 125.966 4.03595 129.481 4.38912" stroke="#0879C4" stroke-width="1.75" stroke-linecap="round" stroke-linejoin="round"/>
<path d="M120.731 25.3891C120.731 25.3891 123.356 28.8891 127.731 28.8891C132.106 28.8891 134.731 25.3891 134.731 25.3891" stroke="#0879C4" stroke-width="1.75" stroke-linecap="round" stroke-linejoin="round"/>
<path d="M122.481 16.6391H122.498" stroke="#0879C4" stroke-width="1.75" stroke-linecap="round" stroke-linejoin="round"/>
<path d="M132.981 16.6391H132.998" stroke="#0879C4" stroke-width="1.75" stroke-linecap="round" stroke-linejoin="round"/>
<path d="M134.731 9.63911H145.231" stroke="#0879C4" stroke-width="1.75" stroke-linecap="round" stroke-linejoin="round"/>
<path d="M139.981 4.38911V14.8891" stroke="#0879C4" stroke-width="1.75" stroke-linecap="round" stroke-linejoin="round"/>
</svg>
