<svg width="102" height="102" viewBox="0 0 102 102" fill="none" xmlns="http://www.w3.org/2000/svg">
<path d="M99.6181 51C99.6181 77.9649 77.8021 99.8204 50.8955 99.8204C23.989 99.8204 2.17296 77.9649 2.17296 51C2.17296 24.0351 23.989 2.17964 50.8955 2.17964C77.8021 2.17964 99.6181 24.0351 99.6181 51Z" fill="white" stroke="black" stroke-width="2.35928"/>
<path d="M25.7641 77.1859C27.7076 76.1134 28.4175 73.6574 27.347 71.7101C26.2766 69.7628 23.8254 69.0515 21.8819 70.1241C19.9385 71.1967 19.2285 73.6527 20.299 75.5999C21.3695 77.5472 23.8214 78.2581 25.7641 77.1859ZM22.6551 71.5305C23.8244 70.8852 25.2993 71.3132 25.9433 72.4848C26.587 73.6557 26.1602 75.1341 24.9909 75.7795C23.8216 76.4248 22.3471 75.9957 21.7034 74.8248C21.0593 73.6532 21.4865 72.1755 22.6551 71.5305Z" fill="black"/>
<path d="M13.392 80.3288L21.4502 75.8815C21.8034 75.6865 21.9169 75.2133 21.7035 74.8251C21.4901 74.4369 21.0302 74.2801 20.677 74.475L12.6189 78.9223C12.2657 79.1172 12.1522 79.5905 12.3656 79.9786C12.579 80.3668 13.0382 80.524 13.392 80.3288Z" fill="black"/>
<path d="M25.5061 66.2383C27.4496 65.1657 28.1595 62.7097 27.0891 60.7624C26.0186 58.8152 23.5674 58.1038 21.6239 59.1764C19.6805 60.249 18.9705 62.705 20.041 64.6523C21.1115 66.5995 23.5634 67.3105 25.5061 66.2383ZM22.3971 60.5829C23.5664 59.9375 25.0413 60.3656 25.6853 61.5371C26.329 62.708 25.9022 64.1865 24.7329 64.8318C23.5636 65.4771 22.0891 65.048 21.4454 63.8772C20.8013 62.7056 21.2285 61.2278 22.3971 60.5829Z" fill="black"/>
<path d="M8.89257 71.7214L20.8802 65.1055C21.4056 64.8155 21.6588 64.2651 21.4454 63.8769C21.232 63.4887 20.6324 63.409 20.107 63.699L8.11937 70.3149C7.59395 70.6049 7.34072 71.1553 7.55412 71.5435C7.76752 71.9317 8.36619 72.0119 8.89257 71.7214Z" fill="black"/>
<path d="M16.6671 59.6995C18.6106 58.6269 19.3205 56.1709 18.25 54.2236C17.1795 52.2764 14.7283 51.565 12.7849 52.6376C10.8415 53.7102 10.1315 56.1662 11.202 58.1134C12.2725 60.0607 14.7244 60.7717 16.6671 59.6995ZM13.5581 54.0441C14.7274 53.3987 16.2022 53.8267 16.8463 54.9983C17.49 56.1692 17.0632 57.6477 15.8939 58.293C14.7246 58.9383 13.2501 58.5092 12.6064 57.3383C11.9623 56.1668 12.3895 54.689 13.5581 54.0441Z" fill="black"/>
<path d="M5.26667 62.3055L12.4246 58.355C12.7383 58.1819 12.8198 57.7263 12.6064 57.3381C12.393 56.9499 11.9651 56.7754 11.6514 56.9485L4.49348 60.899C4.17974 61.0721 4.09831 61.5277 4.31171 61.9159C4.52512 62.3041 4.95237 62.4789 5.26667 62.3055Z" fill="black"/>
<path fill-rule="evenodd" clip-rule="evenodd" d="M32.4027 60.3116C32.4027 60.3086 32.4027 60.3056 32.4027 60.3026V21.5068C32.4027 20.0735 33.5664 18.9075 34.9969 18.9075H70.7985C72.2291 18.9075 73.3927 20.0735 73.3927 21.5068V33.1871C73.3927 33.5846 73.7141 33.9059 74.1101 33.9059C74.5061 33.9059 74.8275 33.5846 74.8275 33.1871V21.5068C74.8275 19.2806 73.0204 17.4699 70.7985 17.4699H34.9969C32.7751 17.4699 30.9679 19.2813 30.9679 21.5068V60.3026C30.9679 60.3684 30.9767 60.4322 30.9932 60.4928C31.2078 62.49 32.8042 63.9732 34.8696 63.9732H49.0801C49.4768 63.9732 49.7975 63.6512 49.7975 63.2544C49.7975 62.8576 49.4768 62.5356 49.0801 62.5356H34.8696C33.5015 62.5356 32.4885 61.6432 32.4027 60.3116Z" fill="black"/>
<path d="M58.2001 32.0022H38.545C38.0986 32.0022 37.7364 31.7856 37.7364 31.5178C37.7364 31.2499 38.0986 31.0334 38.545 31.0334H58.2001C58.6472 31.0334 59.0087 31.2499 59.0087 31.5178C59.0087 31.7856 58.6464 32.0022 58.2001 32.0022Z" fill="black" stroke="black" stroke-width="0.5"/>
<path d="M67.5018 26.1893H38.9126C38.2633 26.1893 37.7364 25.9727 37.7364 25.7049C37.7364 25.437 38.2633 25.2205 38.9126 25.2205H67.5018C68.1522 25.2205 68.6779 25.437 68.6779 25.7049C68.6779 25.9727 68.151 26.1893 67.5018 26.1893Z" fill="black" stroke="black" stroke-width="0.5"/>
<path d="M58.2001 37.8151H38.545C38.0986 37.8151 37.7364 37.5986 37.7364 37.3307C37.7364 37.0628 38.0986 36.8463 38.545 36.8463H58.2001C58.6472 36.8463 59.0087 37.0628 59.0087 37.3307C59.0087 37.5986 58.6464 37.8151 58.2001 37.8151Z" fill="#C50878" stroke="#C50878" stroke-width="0.5"/>
<path d="M54.4794 43.628H38.398C38.0328 43.628 37.7364 43.4115 37.7364 43.1436C37.7364 42.8757 38.0328 42.6592 38.398 42.6592H54.4794C54.8453 42.6592 55.141 42.8757 55.141 43.1436C55.141 43.4115 54.8446 43.628 54.4794 43.628Z" fill="#C50878" stroke="#C50878" stroke-width="0.5"/>
<path d="M47.9682 49.4409H38.1407C37.9175 49.4409 37.7364 49.2244 37.7364 48.9565C37.7364 48.6886 37.9175 48.4721 38.1407 48.4721H47.9682C48.1918 48.4721 48.3725 48.6886 48.3725 48.9565C48.3725 49.2244 48.1914 49.4409 47.9682 49.4409Z" fill="black" stroke="black" stroke-width="0.5"/>
<path d="M42.3872 55.2538H37.9202C37.8187 55.2538 37.7364 55.0373 37.7364 54.7694C37.7364 54.5015 37.8187 54.285 37.9202 54.285H42.3872C42.4889 54.285 42.571 54.5015 42.571 54.7694C42.571 55.0373 42.4887 55.2538 42.3872 55.2538Z" fill="black" stroke="black" stroke-width="0.5"/>
<path d="M62.0932 80.5303H40.4148C40.1583 80.5303 39.9124 80.4282 39.731 80.2465C39.5497 80.0648 39.4478 79.8184 39.4478 79.5615V77.3138C39.4504 75.9939 39.9748 74.7288 40.9063 73.7954C41.8378 72.8621 43.1005 72.3366 44.4178 72.3341H58.0901C59.4075 72.3366 60.6701 72.8621 61.6016 73.7954C62.5331 74.7288 63.0575 75.9939 63.0601 77.3138V79.5615C63.0601 79.8184 62.9582 80.0648 62.7769 80.2465C62.5956 80.4282 62.3496 80.5303 62.0932 80.5303ZM41.3817 78.5926H61.1263V77.3138C61.1237 76.5078 60.803 75.7355 60.2342 75.1655C59.6653 74.5956 58.8946 74.2743 58.0901 74.2717H44.4178C43.6134 74.2743 42.8426 74.5956 42.2738 75.1655C41.7049 75.7355 41.3842 76.5078 41.3817 77.3138V78.5926Z" fill="black"/>
<path d="M64.3391 68.3409C63.8596 68.4082 63.3715 68.3799 62.9029 68.2576C62.4344 68.1353 61.9946 67.9213 61.6088 67.628L47.8489 57.1874C47.0696 56.5959 46.5567 55.7185 46.4229 54.7481C46.2891 53.7778 46.5455 52.7939 47.1357 52.0129C47.7399 51.2513 48.6137 50.7522 49.5756 50.6191C50.5374 50.486 51.5135 50.7291 52.3012 51.2981L66.0599 61.7389C66.641 62.1798 67.0785 62.7835 67.3172 63.4736C67.5559 64.1637 67.585 64.9092 67.4008 65.6159C67.2166 66.3226 66.8274 66.9586 66.2825 67.4437C65.7375 67.9287 65.0612 68.241 64.3391 68.3409ZM49.9049 53.0082C49.6612 53.0419 49.4329 53.1473 49.2489 53.311C49.065 53.4747 48.9336 53.6893 48.8713 53.9278C48.8091 54.1663 48.8188 54.418 48.8992 54.6509C48.9797 54.8839 49.1272 55.0878 49.3232 55.2367L63.0831 65.6774C63.2132 65.7783 63.362 65.8524 63.5209 65.8954C63.6797 65.9383 63.8455 65.9493 64.0087 65.9276C64.1718 65.9059 64.329 65.8521 64.4712 65.7691C64.6134 65.6861 64.7378 65.5758 64.8371 65.4443C64.9364 65.3129 65.0088 65.163 65.0499 65.0034C65.0911 64.8438 65.1002 64.6775 65.0768 64.5143C65.0534 64.3511 64.998 64.1942 64.9136 64.0526C64.8293 63.9111 64.7178 63.7876 64.5856 63.6895L50.8269 53.2487C50.6966 53.1497 50.5481 53.0775 50.3899 53.0362C50.2316 52.995 50.0668 52.9854 49.9049 53.0082Z" fill="black"/>
<path d="M79.2254 48.648C78.7457 48.7156 78.2573 48.6872 77.7886 48.5644C77.3199 48.4416 76.8801 48.2269 76.4948 47.9327L62.7351 37.4933C61.9556 36.9016 61.4426 36.024 61.3089 35.0534C61.1751 34.0829 61.4314 33.0988 62.0216 32.3176C62.6257 31.5558 63.4995 31.0564 64.4615 30.9233C65.4234 30.7902 66.3996 31.0335 67.1872 31.6028L80.9459 42.0436C81.5267 42.4849 81.9639 43.0888 82.2024 43.7789C82.4409 44.4691 82.4699 45.2145 82.2858 45.9212C82.1018 46.6279 81.7128 47.264 81.1681 47.7494C80.6234 48.2347 79.9474 48.5474 79.2254 48.648ZM64.7957 33.3122C64.6339 33.3345 64.4781 33.3888 64.3374 33.4718C64.1967 33.5549 64.0739 33.6652 63.976 33.7962C63.7771 34.0602 63.6907 34.3924 63.7359 34.72C63.7811 35.0477 63.9541 35.344 64.217 35.5441L77.9767 45.9835C78.2422 46.1757 78.5715 46.2579 78.8959 46.213C79.2204 46.1681 79.5151 45.9996 79.7187 45.7425C79.9176 45.4787 80.004 45.1467 79.9588 44.8192C79.9137 44.4918 79.7407 44.1957 79.4779 43.9958L65.712 33.556C65.5828 33.457 65.4353 33.3845 65.2781 33.3427C65.1209 33.3008 64.9569 33.2905 64.7957 33.3122Z" fill="black"/>
<path d="M64.508 63.1802C64.1872 63.2246 63.862 63.1394 63.6038 62.9434L51.81 53.9946C51.5519 53.7987 51.382 53.5081 51.3377 53.1867C51.2934 52.8653 51.3783 52.5394 51.5737 52.2807L63.4819 36.5253C63.6774 36.2666 63.9674 36.0964 64.2882 36.052C64.609 36.0076 64.9342 36.0927 65.1924 36.2885L76.9862 45.2374C77.2443 45.4333 77.4142 45.7239 77.4585 46.0453C77.5028 46.3667 77.4179 46.6926 77.2225 46.9513L65.3144 62.7067C65.1189 62.9654 64.8288 63.1358 64.508 63.1802ZM54.2577 52.7826L64.1047 60.2542L74.5385 46.4494L64.6915 38.9778L54.2577 52.7826Z" fill="black"/>
<path d="M72.0207 60.2285C71.5412 60.2958 71.0531 60.2675 70.5845 60.1452C70.1159 60.0228 69.6761 59.8089 69.2904 59.5156L67.3257 58.0248L68.7957 56.0699L70.7642 57.5614C71.0275 57.761 71.3592 57.8477 71.6863 57.8025C72.0134 57.7572 72.3092 57.5836 72.5086 57.32L73.9975 55.35C74.1968 55.0862 74.2833 54.7539 74.2382 54.4261C74.193 54.0984 74.0198 53.802 73.7566 53.6022L71.7902 52.1079L73.2645 50.1573L75.2292 51.6481C76.0083 52.2399 76.5211 53.1175 76.6549 54.088C76.7887 55.0584 76.5325 56.0424 75.9426 56.8237L74.4548 58.7923C74.1637 59.1807 73.7987 59.5076 73.381 59.7541C72.9632 60.0006 72.5009 60.1618 72.0207 60.2285Z" fill="black"/>
<path d="M85.6814 69.9491C85.5223 69.9713 85.3605 69.9618 85.2051 69.9212C85.0498 69.8806 84.9039 69.8097 84.7759 69.7125L72.0003 60.0176L73.4746 58.067L85.278 67.0231L86.7805 65.0352L74.9771 56.0791L76.4514 54.1284L89.2282 63.8232C89.4863 64.0191 89.6562 64.3097 89.7005 64.6311C89.7448 64.9526 89.6599 65.2784 89.4645 65.5371L86.4877 69.4756C86.2922 69.7343 86.0022 69.9047 85.6814 69.9491Z" fill="black"/>
<path d="M29.9 39.5498L27.8991 32.764C27.8023 32.5104 27.6746 32.2335 27.5288 31.9688C27.3835 31.7037 27.2181 31.4468 27.0373 31.2059C26.8568 30.9654 26.6568 30.7343 26.4428 30.5199C26.2293 30.3064 25.9991 30.106 25.7582 29.9247C25.5186 29.7444 25.2622 29.5783 24.9968 29.4318C24.7327 29.2862 24.4559 29.1582 24.1742 29.0514L17.431 27.0569L24.2036 25.0521C24.4559 24.9555 24.7327 24.8279 24.9976 24.6815C25.263 24.535 25.519 24.3689 25.7586 24.1885C25.9995 24.0073 26.2297 23.8069 26.4433 23.5934C26.6572 23.379 26.8568 23.1483 27.0373 22.9074C27.2185 22.666 27.3839 22.4092 27.5292 22.1445C27.675 21.8798 27.8023 21.6025 27.9089 21.3202L29.9 14.5634L31.9008 21.3493C31.9984 21.6037 32.1258 21.8811 32.2711 22.1449C32.416 22.4092 32.5818 22.666 32.7631 22.9078C32.9431 23.1483 33.1432 23.3794 33.3571 23.5938C33.5706 23.8073 33.8009 24.0077 34.0417 24.189C34.2814 24.3693 34.5378 24.5354 34.8031 24.6819C35.0681 24.8279 35.3445 24.9555 35.6254 25.0619L42.3689 27.0573L35.5968 29.0616C35.3441 29.1586 35.0673 29.2866 34.8027 29.4326C34.5373 29.5791 34.2814 29.7452 34.0413 29.9256C33.8004 30.1068 33.5702 30.3072 33.3567 30.5207C33.1427 30.7351 32.9431 30.9658 32.7627 31.2063C32.581 31.4485 32.4156 31.705 32.2707 31.9692C32.1282 32.2286 32.0021 32.5014 31.8959 32.78L29.9 39.5498Z" fill="#EFDB5D"/>
<path d="M18.3981 45.5663L17.2667 41.729C17.2214 41.6126 17.1586 41.4761 17.0874 41.3464C17.0152 41.2154 16.934 41.0889 16.845 40.9705C16.756 40.8515 16.6573 40.738 16.5524 40.633C16.4476 40.5279 16.3346 40.4293 16.2159 40.3399C16.0971 40.2504 15.9712 40.169 15.8411 40.097C15.711 40.025 15.5744 39.9621 15.4359 39.9096L11.6295 38.7837L15.4589 37.6501C15.5744 37.6054 15.711 37.5421 15.8414 37.4705C15.9712 37.3988 16.0971 37.3174 16.2155 37.2279C16.3346 37.1384 16.4476 37.0399 16.5521 36.9351C16.6573 36.8301 16.7557 36.7166 16.845 36.5972C16.9337 36.4789 17.0152 36.3524 17.0874 36.2218C17.1589 36.0921 17.2217 35.9555 17.2745 35.8161L18.3981 32.0022L19.5291 35.8395C19.5745 35.9559 19.6372 36.0924 19.7084 36.2221C19.7806 36.3531 19.8618 36.4795 19.9508 36.5979C20.0398 36.7169 20.1385 36.8304 20.2434 36.9355C20.3482 37.0405 20.4612 37.1391 20.58 37.2286C20.6987 37.3181 20.8246 37.3995 20.9547 37.4715C21.0848 37.5431 21.2214 37.6063 21.3599 37.6589L25.1664 38.7841L21.3369 39.9177C21.2214 39.9624 21.0848 40.0256 20.9544 40.0973C20.8246 40.169 20.6987 40.2504 20.5803 40.3399C20.4612 40.4293 20.3482 40.5279 20.2437 40.6327C20.1385 40.7377 20.0402 40.8512 19.9508 40.9705C19.8622 41.0889 19.7806 41.2154 19.7084 41.346C19.6389 41.4725 19.5774 41.6051 19.5256 41.7407L18.3981 45.5663Z" fill="#EFDB5D"/>
</svg>
