<svg width="170" height="160" viewBox="0 0 170 160" fill="none" xmlns="http://www.w3.org/2000/svg">
<rect width="168.638" height="159.07" transform="translate(0.807007 0.0450134)" fill="white"/>
<circle cx="85.2568" cy="82.1027" r="60.3146" fill="white" stroke="black" stroke-width="2.82173"/>
<path d="M86.9424 89.9178H109.766M109.766 89.9178L103.168 83.3198M109.766 89.9178L103.168 96.5157" stroke="#C50878" stroke-width="3.29898" stroke-linecap="round" stroke-linejoin="round"/>
<path d="M71.0761 69.2308L68.6769 61.11C68.5609 60.8065 68.4076 60.4751 68.2329 60.1583C68.0586 59.8411 67.8604 59.5337 67.6435 59.2454C67.4271 58.9575 67.1873 58.6809 66.9307 58.4244C66.6747 58.1689 66.3986 57.929 66.1098 57.7122C65.8224 57.4963 65.515 57.2975 65.1968 57.1223C64.8801 56.948 64.5482 56.7948 64.2104 56.667L56.1249 54.2801L64.2457 51.8809C64.5482 51.7654 64.8801 51.6126 65.1978 51.4374C65.516 51.2621 65.8229 51.0634 66.1103 50.8475C66.3991 50.6306 66.6752 50.3908 66.9312 50.1352C67.1877 49.8787 67.4271 49.6026 67.6435 49.3143C67.8608 49.0255 68.0591 48.7181 68.2334 48.4013C68.4081 48.0846 68.5609 47.7527 68.6886 47.4149L71.0761 39.3289L73.4753 47.4497C73.5923 47.7542 73.745 48.0861 73.9193 48.4018C74.093 48.7181 74.2918 49.0255 74.5091 49.3148C74.725 49.6026 74.9649 49.8792 75.2214 50.1357C75.4774 50.3913 75.7535 50.6311 76.0423 50.848C76.3297 51.0639 76.6371 51.2626 76.9553 51.4379C77.273 51.6126 77.6044 51.7654 77.9412 51.8926L86.0273 54.2806L77.907 56.6793C77.6039 56.7953 77.272 56.9485 76.9548 57.1233C76.6366 57.2985 76.3297 57.4973 76.0419 57.7131C75.753 57.93 75.4769 58.1699 75.2209 58.4254C74.9644 58.6819 74.725 58.958 74.5086 59.2459C74.2908 59.5357 74.0925 59.8426 73.9188 60.1588C73.7479 60.4692 73.5967 60.7957 73.4694 61.1291L71.0761 69.2308Z" fill="#EFDB5D"/>
<path d="M86.3338 47.4452L84.9772 42.853C84.9229 42.7137 84.8476 42.5503 84.7622 42.3951C84.6757 42.2383 84.5783 42.087 84.4716 41.9454C84.3649 41.803 84.2465 41.6671 84.1208 41.5414C83.9951 41.4157 83.8596 41.2977 83.7172 41.1906C83.5748 41.0835 83.4239 40.9861 83.2679 40.9C83.1119 40.8138 82.9481 40.7385 82.782 40.6757L78.2178 39.3284L82.8096 37.9717C82.9481 37.9182 83.1119 37.8425 83.2682 37.7568C83.4239 37.671 83.5748 37.5736 83.7168 37.4665C83.8596 37.3594 83.9951 37.2414 84.1204 37.1161C84.2465 36.9904 84.3645 36.8545 84.4716 36.7117C84.5779 36.5701 84.6757 36.4188 84.7622 36.2624C84.848 36.1072 84.9233 35.9438 84.9865 35.7769L86.3338 31.2127L87.6901 35.8049C87.7444 35.9442 87.8197 36.1075 87.9051 36.2628C87.9916 36.4195 88.089 36.5709 88.1957 36.7125C88.3024 36.8549 88.4208 36.9907 88.5465 37.1165C88.6722 37.2422 88.8077 37.3602 88.9501 37.4673C89.0925 37.5744 89.2434 37.6718 89.3994 37.7579C89.5554 37.8437 89.7192 37.9193 89.8853 37.9822L94.4495 39.3287L89.8577 40.6854C89.7192 40.7389 89.5554 40.8146 89.3991 40.9003C89.2434 40.9861 89.0925 41.0835 88.9505 41.1906C88.8077 41.2977 88.6722 41.4157 88.5469 41.541C88.4208 41.6667 88.3028 41.8026 88.1957 41.9454C88.0894 42.087 87.9916 42.2383 87.9051 42.3947C87.8216 42.5461 87.7479 42.7048 87.6858 42.867L86.3338 47.4452Z" fill="#EFDB5D"/>
<path d="M54.2338 74.8658V104.97" stroke="black" stroke-width="2.82225" stroke-linecap="round" stroke-linejoin="round"/>
<path d="M46.7086 84.2733V95.5622" stroke="black" stroke-width="2.82225" stroke-linecap="round" stroke-linejoin="round"/>
<path d="M39.1832 86.1548V93.6807" stroke="black" stroke-width="2.82225" stroke-linecap="round" stroke-linejoin="round"/>
<path d="M61.7606 80.5103V97.4438" stroke="black" stroke-width="2.82225" stroke-linecap="round" stroke-linejoin="round"/>
<path d="M69.2872 86.1548V93.6807" stroke="black" stroke-width="2.82225" stroke-linecap="round" stroke-linejoin="round"/>
<path d="M77.3202 80.5103V97.4438" stroke="black" stroke-width="2.82225" stroke-linecap="round" stroke-linejoin="round"/>
<path d="M94.4498 107.836H126.059C127.257 107.836 128.405 107.36 129.252 106.513C130.099 105.666 130.575 104.518 130.575 103.32V75.0975L118.157 62.6797H98.9654C97.7678 62.6797 96.6193 63.1554 95.7724 64.0022C94.9256 64.8491 94.4498 65.9976 94.4498 67.1953V76.2264" stroke="black" stroke-width="2.2578" stroke-linecap="round" stroke-linejoin="round"/>
<path d="M118.248 62.6796V75.0222H130.452" stroke="black" stroke-width="2.2578" stroke-linecap="round" stroke-linejoin="round"/>
<g clip-path="url(#clip0_15_532)">
<path d="M20.3816 122.758H156.727V144.797H23.9696L20.3816 122.758Z" fill="black"/>
<path d="M29.9283 147.195L22.7736 145.096L21.2786 119.872H39.5178L29.9283 147.195Z" fill="url(#paint0_linear_15_532)"/>
<path d="M64.023 129.666H66.1441L68.9846 136.6H69.0967L71.9372 129.666H74.0583V139.234H72.3951V132.661H72.3063L69.662 139.206H68.4193L65.775 132.647H65.6862V139.234H64.023V129.666ZM75.871 139.234V132.058H77.5623V139.234H75.871ZM76.7213 131.04C76.4534 131.04 76.223 130.951 76.0299 130.774C75.8368 130.593 75.7402 130.377 75.7402 130.124C75.7402 129.869 75.8368 129.652 76.0299 129.475C76.223 129.294 76.4534 129.204 76.7213 129.204C76.9923 129.204 77.2228 129.294 77.4127 129.475C77.6059 129.652 77.7024 129.869 77.7024 130.124C77.7024 130.377 77.6059 130.593 77.4127 130.774C77.2228 130.951 76.9923 131.04 76.7213 131.04ZM80.9926 135.03V139.234H79.3014V132.058H80.9179V133.278H81.002C81.167 132.876 81.4302 132.557 81.7915 132.32C82.1559 132.083 82.606 131.965 83.1417 131.965C83.6369 131.965 84.0683 132.071 84.4358 132.283C84.8065 132.494 85.093 132.801 85.2955 133.203C85.501 133.605 85.6023 134.092 85.5991 134.665V139.234H83.9079V134.927C83.9079 134.447 83.7833 134.072 83.5341 133.801C83.2881 133.53 82.947 133.395 82.511 133.395C82.2151 133.395 81.9519 133.46 81.7214 133.591C81.4941 133.719 81.315 133.904 81.1842 134.147C81.0565 134.39 80.9926 134.684 80.9926 135.03ZM91.8922 136.216V132.058H93.5835V139.234H91.9436V137.959H91.8689C91.7069 138.361 91.4406 138.689 91.07 138.945C90.7024 139.2 90.2493 139.328 89.7104 139.328C89.2401 139.328 88.8243 139.224 88.463 139.015C88.1049 138.803 87.8245 138.496 87.6221 138.095C87.4196 137.69 87.3184 137.201 87.3184 136.628V132.058H89.0097V136.366C89.0097 136.821 89.1342 137.182 89.3834 137.45C89.6326 137.718 89.9596 137.852 90.3645 137.852C90.6137 137.852 90.8551 137.791 91.0887 137.669C91.3223 137.548 91.5138 137.367 91.6633 137.127C91.8159 136.885 91.8922 136.581 91.8922 136.216ZM98.906 132.058V133.367H94.7806V132.058H98.906ZM95.7991 130.339H97.4904V137.076C97.4904 137.303 97.5246 137.478 97.5932 137.599C97.6648 137.718 97.7582 137.799 97.8735 137.842C97.9887 137.886 98.1164 137.908 98.2566 137.908C98.3625 137.908 98.459 137.9 98.5462 137.884C98.6365 137.869 98.7051 137.855 98.7518 137.842L99.0368 139.164C98.9465 139.196 98.8172 139.23 98.649 139.267C98.4839 139.305 98.2815 139.326 98.0417 139.333C97.6181 139.345 97.2365 139.281 96.897 139.141C96.5575 138.998 96.2881 138.777 96.0888 138.478C95.8926 138.179 95.796 137.805 95.7991 137.356V130.339ZM103.42 139.375C102.701 139.375 102.079 139.225 101.556 138.926C101.036 138.624 100.636 138.197 100.355 137.646C100.075 137.092 99.935 136.439 99.935 135.689C99.935 134.95 100.075 134.302 100.355 133.745C100.639 133.184 101.034 132.748 101.542 132.437C102.05 132.122 102.646 131.965 103.331 131.965C103.774 131.965 104.191 132.037 104.584 132.18C104.979 132.32 105.328 132.538 105.63 132.834C105.935 133.13 106.175 133.507 106.35 133.965C106.524 134.419 106.611 134.961 106.611 135.59V136.109H100.729V134.969H104.99C104.987 134.645 104.917 134.357 104.78 134.105C104.643 133.849 104.451 133.648 104.205 133.502C103.962 133.356 103.679 133.282 103.355 133.282C103.009 133.282 102.705 133.367 102.444 133.535C102.182 133.7 101.978 133.918 101.832 134.189C101.688 134.457 101.615 134.751 101.612 135.072V136.067C101.612 136.484 101.688 136.842 101.841 137.141C101.994 137.437 102.207 137.665 102.481 137.824C102.755 137.979 103.076 138.057 103.444 138.057C103.69 138.057 103.912 138.023 104.112 137.954C104.311 137.883 104.484 137.778 104.63 137.641C104.777 137.504 104.887 137.335 104.962 137.132L106.541 137.31C106.441 137.727 106.251 138.091 105.971 138.403C105.694 138.711 105.339 138.951 104.906 139.122C104.473 139.291 103.978 139.375 103.42 139.375Z" fill="white"/>
</g>
<defs>
<linearGradient id="paint0_linear_15_532" x1="47.1075" y1="118.252" x2="53.817" y2="131.422" gradientUnits="userSpaceOnUse">
<stop offset="0.005" stop-color="#A20763"/>
<stop offset="1" stop-color="#C50878"/>
</linearGradient>
<clipPath id="clip0_15_532">
<rect width="123.189" height="21.5283" fill="white" transform="translate(23.8925 123.269)"/>
</clipPath>
</defs>
</svg>
