<svg width="170" height="160" viewBox="0 0 170 160" fill="none" xmlns="http://www.w3.org/2000/svg">
<rect width="168.638" height="159.07" transform="translate(0.873047 0.0450134)" fill="white"/>
<circle cx="85.3225" cy="80.9067" r="60.3146" fill="white" stroke="black" stroke-width="2.82173"/>
<path d="M38.7056 99.0319C41.45 99.0042 43.6593 96.7497 43.6315 94.0053C43.6038 91.261 41.3493 89.0517 38.6049 89.0795C35.8606 89.1072 33.6513 91.3617 33.6791 94.106C33.7068 96.8504 35.9623 99.0597 38.7056 99.0319ZM38.625 91.0616C40.2761 91.0449 41.6327 92.3743 41.6494 94.0254C41.6661 95.6756 40.3367 97.0331 38.6856 97.0498C37.0344 97.0665 35.6789 95.7361 35.6622 94.086C35.6455 92.4348 36.9748 91.0783 38.625 91.0616Z" fill="black"/>
<path d="M27.3495 95.1616L35.06 95.0836C35.398 95.0802 35.6678 94.6334 35.6622 94.0863C35.6567 93.5393 35.3779 93.098 35.04 93.1014L27.3295 93.1795C26.9915 93.1829 26.7218 93.6297 26.7273 94.1767C26.7328 94.7238 27.011 95.165 27.3495 95.1616Z" fill="black"/>
<path d="M44.8252 86.9775C47.5695 86.9497 49.7788 84.6952 49.751 81.9509C49.7233 79.2066 47.4688 76.9973 44.7245 77.0251C41.9801 77.0528 39.7708 79.3073 39.7986 82.0516C39.8263 84.7959 42.0818 87.0053 44.8252 86.9775ZM44.7445 79.0072C46.3957 78.9905 47.7522 80.3198 47.7689 81.971C47.7856 83.6211 46.4562 84.9786 44.8051 84.9953C43.154 85.0121 41.7984 83.6817 41.7817 82.0316C41.765 80.3804 43.0944 79.0239 44.7445 79.0072Z" fill="black"/>
<path d="M26.5139 83.1769L40.668 83.0337C41.2884 83.0275 41.7874 82.5784 41.7819 82.0313C41.7763 81.4842 41.2684 81.0453 40.648 81.0516L26.4939 81.1948C25.8735 81.2011 25.3745 81.6502 25.38 82.1972C25.3855 82.7443 25.8924 83.1832 26.5139 83.1769Z" fill="black"/>
<path d="M39.0185 74.6901C41.7628 74.6624 43.9722 72.4079 43.9444 69.6635C43.9166 66.9192 41.6621 64.7099 38.9178 64.7377C36.1735 64.7654 33.9642 67.0199 33.9919 69.7642C34.0197 72.5086 36.2752 74.7179 39.0185 74.6901ZM38.9379 66.7198C40.589 66.7031 41.9455 68.0325 41.9622 69.6836C41.9789 71.3338 40.6496 72.6913 38.9985 72.708C37.3473 72.7247 35.9918 71.3943 35.9751 69.7442C35.9584 68.093 37.2877 66.7365 38.9379 66.7198Z" fill="black"/>
<path d="M25.6946 70.8391L35.2283 70.7426C35.6461 70.7384 35.9808 70.291 35.9752 69.7439C35.9697 69.1968 35.6261 68.7562 35.2082 68.7605L25.6746 68.8569C25.2567 68.8612 24.9221 69.3086 24.9276 69.8557C24.9331 70.4028 25.276 70.8433 25.6946 70.8391Z" fill="black"/>
<path d="M123.161 101.706C123.161 98.4515 118.975 86.158 109.862 81.374L92.6622 86.158C95.3745 88.8703 105.22 87.7494 105.22 94.5301C105.22 106.057 105.22 122.636 115.387 128.019C121.367 131.184 123.161 105.775 123.161 101.706Z" fill="#124581"/>
<path d="M105.22 91.5402C103.426 113.666 108.422 120.245 112.995 126.225C120.644 136.228 132.131 93.9322 111.896 83.4082" stroke="black" stroke-width="2.07579" stroke-linecap="round"/>
<path d="M48.4892 101.706C48.4892 98.4515 52.6752 86.158 61.7878 81.374L78.9875 86.158C76.2753 88.8703 66.4294 87.7494 66.4294 94.5301C66.4294 106.057 66.4294 122.636 56.2633 128.019C50.2832 131.184 48.4892 105.775 48.4892 101.706Z" fill="#124581"/>
<path d="M66.4294 91.5402C68.2234 113.666 63.2283 120.245 58.6553 126.225C51.0057 136.228 39.519 93.9322 59.7535 83.4082" stroke="black" stroke-width="2.07579" stroke-linecap="round"/>
<mask id="path-12-inside-1_15_432" fill="white">
<path fill-rule="evenodd" clip-rule="evenodd" d="M98.9815 87.872C110.684 87.872 120.171 78.3852 120.171 66.6828C120.171 54.9803 110.684 45.4936 98.9815 45.4936C94.1285 45.4936 89.6565 47.125 86.0842 49.8695C82.5118 47.125 78.0399 45.4936 73.1869 45.4936C61.4844 45.4936 51.9977 54.9803 51.9977 66.6828C51.9977 78.3852 61.4844 87.872 73.1869 87.872C78.0399 87.872 82.5118 86.2405 86.0842 83.4961C89.6565 86.2405 94.1285 87.872 98.9815 87.872Z"/>
</mask>
<path fill-rule="evenodd" clip-rule="evenodd" d="M98.9815 87.872C110.684 87.872 120.171 78.3852 120.171 66.6828C120.171 54.9803 110.684 45.4936 98.9815 45.4936C94.1285 45.4936 89.6565 47.125 86.0842 49.8695C82.5118 47.125 78.0399 45.4936 73.1869 45.4936C61.4844 45.4936 51.9977 54.9803 51.9977 66.6828C51.9977 78.3852 61.4844 87.872 73.1869 87.872C78.0399 87.872 82.5118 86.2405 86.0842 83.4961C89.6565 86.2405 94.1285 87.872 98.9815 87.872Z" fill="#124581"/>
<path d="M86.0842 49.8695L84.8196 51.5156L86.0842 52.4871L87.3488 51.5156L86.0842 49.8695ZM86.0842 83.4961L87.3488 81.8499L86.0842 80.8784L84.8196 81.8499L86.0842 83.4961ZM118.095 66.6828C118.095 77.2388 109.538 85.7962 98.9815 85.7962V89.9477C111.83 89.9477 122.246 79.5317 122.246 66.6828H118.095ZM98.9815 47.5694C109.538 47.5694 118.095 56.1267 118.095 66.6828H122.246C122.246 53.8339 111.83 43.4178 98.9815 43.4178V47.5694ZM87.3488 51.5156C90.5712 49.04 94.6016 47.5694 98.9815 47.5694V43.4178C93.6553 43.4178 88.7419 45.2101 84.8196 48.2233L87.3488 51.5156ZM73.1869 47.5694C77.5667 47.5694 81.5972 49.04 84.8196 51.5156L87.3488 48.2233C83.4265 45.2101 78.513 43.4178 73.1869 43.4178V47.5694ZM54.0735 66.6828C54.0735 56.1267 62.6308 47.5694 73.1869 47.5694V43.4178C60.338 43.4178 49.9219 53.8339 49.9219 66.6828H54.0735ZM73.1869 85.7962C62.6308 85.7962 54.0735 77.2388 54.0735 66.6828H49.9219C49.9219 79.5317 60.338 89.9477 73.1869 89.9477V85.7962ZM84.8196 81.8499C81.5972 84.3255 77.5667 85.7962 73.1869 85.7962V89.9477C78.513 89.9477 83.4265 88.1554 87.3488 85.1422L84.8196 81.8499ZM98.9815 85.7962C94.6016 85.7962 90.5712 84.3255 87.3488 81.8499L84.8196 85.1422C88.7419 88.1554 93.6553 89.9477 98.9815 89.9477V85.7962Z" fill="black" mask="url(#path-12-inside-1_15_432)"/>
<path d="M81.1704 43.8004L86.5525 47.3885L91.3365 43.8004L103.297 39.6144L106.885 35.4283L105.689 43.8004L94.9246 49.7805L88.9445 52.7705L87.1505 55.7606L82.3664 51.5745L72.2003 48.5845L66.2202 42.6044V35.4283L71.6023 40.6566L81.1704 43.8004Z" fill="#124581"/>
<mask id="path-15-inside-2_15_432" fill="white">
<path fill-rule="evenodd" clip-rule="evenodd" d="M85.5233 83.396C82.4233 85.7776 78.5426 87.1933 74.3312 87.1933C64.1759 87.1933 55.9434 78.9608 55.9434 68.8054C55.9434 58.6501 64.1759 50.4176 74.3312 50.4176C78.5426 50.4176 82.4233 51.8333 85.5233 54.2148C88.6233 51.8333 92.504 50.4176 96.7154 50.4176C106.871 50.4176 115.103 58.6501 115.103 68.8054C115.103 78.9608 106.871 87.1933 96.7154 87.1933C92.504 87.1933 88.6233 85.7776 85.5233 83.396Z"/>
</mask>
<path fill-rule="evenodd" clip-rule="evenodd" d="M85.5233 83.396C82.4233 85.7776 78.5426 87.1933 74.3312 87.1933C64.1759 87.1933 55.9434 78.9608 55.9434 68.8054C55.9434 58.6501 64.1759 50.4176 74.3312 50.4176C78.5426 50.4176 82.4233 51.8333 85.5233 54.2148C88.6233 51.8333 92.504 50.4176 96.7154 50.4176C106.871 50.4176 115.103 58.6501 115.103 68.8054C115.103 78.9608 106.871 87.1933 96.7154 87.1933C92.504 87.1933 88.6233 85.7776 85.5233 83.396Z" fill="white"/>
<path d="M85.5233 83.396L86.7879 81.7499L85.5233 80.7784L84.2587 81.7499L85.5233 83.396ZM85.5233 54.2148L84.2587 55.861L85.5233 56.8325L86.7879 55.861L85.5233 54.2148ZM84.2587 81.7499C81.5086 83.8626 78.0694 85.1175 74.3312 85.1175V89.2691C79.0157 89.2691 83.3379 87.6925 86.7879 85.0422L84.2587 81.7499ZM74.3312 85.1175C65.3223 85.1175 58.0192 77.8144 58.0192 68.8054H53.8676C53.8676 80.1072 63.0295 89.2691 74.3312 89.2691V85.1175ZM58.0192 68.8054C58.0192 59.7965 65.3223 52.4934 74.3312 52.4934V48.3418C63.0295 48.3418 53.8676 57.5037 53.8676 68.8054H58.0192ZM74.3312 52.4934C78.0694 52.4934 81.5086 53.7483 84.2587 55.861L86.7879 52.5687C83.3379 49.9184 79.0157 48.3418 74.3312 48.3418V52.4934ZM86.7879 55.861C89.538 53.7483 92.9772 52.4934 96.7154 52.4934V48.3418C92.0309 48.3418 87.7087 49.9184 84.2587 52.5687L86.7879 55.861ZM96.7154 52.4934C105.724 52.4934 113.027 59.7965 113.027 68.8054H117.179C117.179 57.5037 108.017 48.3418 96.7154 48.3418V52.4934ZM113.027 68.8054C113.027 77.8144 105.724 85.1175 96.7154 85.1175V89.2691C108.017 89.2691 117.179 80.1072 117.179 68.8054H113.027ZM96.7154 85.1175C92.9772 85.1175 89.538 83.8626 86.7879 81.7499L84.2587 85.0422C87.7087 87.6925 92.0309 89.2691 96.7154 89.2691V85.1175Z" fill="black" mask="url(#path-15-inside-2_15_432)"/>
<path d="M130.839 68.8655L130.839 68.8655C126.91 76.3364 117.658 78.874 110.669 74.6327C110.389 74.4628 110.114 74.2778 109.835 74.0807L109.418 73.7863L108.923 73.9108L102.612 75.4987C102.612 75.4986 102.612 75.4985 102.612 75.4984L105.628 70.5282L105.963 69.9768L105.65 69.4129C103.223 65.0389 103.157 59.4853 105.966 54.8559C110.277 47.7519 119.63 45.6486 126.445 50.393M130.839 68.8655L126.445 50.393M130.839 68.8655C134.201 62.473 132.28 54.455 126.445 50.393M130.839 68.8655L126.445 50.393" fill="#C50878" stroke="black" stroke-width="2.22186"/>
<circle cx="1.79402" cy="1.79402" r="1.79402" transform="matrix(-1 0 0 1 114.19 61.0417)" fill="black"/>
<circle cx="1.79402" cy="1.79402" r="1.79402" transform="matrix(-1 0 0 1 120.171 61.0417)" fill="black"/>
<circle cx="1.79402" cy="1.79402" r="1.79402" transform="matrix(-1 0 0 1 126.151 61.0417)" fill="black"/>
<path d="M85.7354 74.9791C83.106 74.9886 80.9748 76.9745 80.9835 79.4068C80.9923 81.8391 83.8088 85.2277 85.7666 85.92C87.6987 85.2267 90.5278 81.8047 90.519 79.3724C90.5102 76.9401 88.3638 74.9696 85.7354 74.9791Z" fill="#EFDB5D"/>
<path d="M85.7324 74.2161C82.9587 74.226 80.711 76.49 80.721 79.2638C80.731 82.0375 83.7032 85.9028 85.7687 86.6928C87.8067 85.9028 90.7902 82.0013 90.7802 79.2275C90.7702 76.4538 88.5052 74.2061 85.7324 74.2161ZM85.7615 84.6894C84.3871 83.851 82.7304 80.9254 82.7244 79.2566C82.7184 77.5887 84.0708 76.2255 85.7397 76.2195C87.4085 76.2135 88.7697 77.5669 88.7757 79.2348C88.7818 80.9036 87.1228 83.851 85.7615 84.6894Z" fill="black"/>
<path d="M81.9976 95.7262C82.7883 101.929 90.3007 100.551 90.3007 95.7262" stroke="black" stroke-width="2.07579" stroke-linecap="round"/>
<path d="M71.6184 100.916C73.6941 102.472 77.0843 101.021 76.3936 97.3541" stroke="black" stroke-width="2.07579" stroke-linecap="round"/>
<path d="M75.1789 109.219C77.7736 110.257 79.0837 108.218 78.6858 106.105" stroke="black" stroke-width="1.79402" stroke-linecap="round"/>
<path d="M84.3497 108.2C85.6569 110.67 87.9748 109.963 89.0383 108.095" stroke="black" stroke-width="1.79402" stroke-linecap="round"/>
<path d="M79.8045 116.171C81.1325 117.315 82.6615 116.203 82.3908 115.35" stroke="black" stroke-width="1.19601" stroke-linecap="round"/>
<path d="M91.7119 115.604C92.0971 117.315 93.9881 117.331 94.2785 116.485" stroke="black" stroke-width="1.19601" stroke-linecap="round"/>
<path d="M100.936 100.326C98.8599 101.883 95.4698 100.431 96.1605 96.7642" stroke="black" stroke-width="2.07579" stroke-linecap="round"/>
<path d="M98.4134 109.667C95.8187 110.705 94.5086 108.666 94.9065 106.553" stroke="black" stroke-width="1.79402" stroke-linecap="round"/>
<circle cx="92.9306" cy="68.4651" r="6.22737" fill="black"/>
<circle cx="90.855" cy="70.5409" r="2.07579" fill="white"/>
<circle cx="77.3615" cy="68.4651" r="6.22737" fill="black"/>
<circle cx="79.4372" cy="70.5409" r="2.07579" fill="white"/>
<path d="M85.9119 56.5252C87.7139 51.0763 92.9833 50.4834 97.7081 48.8967C103.954 46.4447 108.952 41.5406 105.588 34.7294" stroke="black" stroke-width="2.07579" stroke-linecap="round"/>
<path d="M85.9118 49.7789C89.799 39.9927 101.632 46.0771 105.632 34.7294" stroke="black" stroke-width="2.07579" stroke-linecap="round"/>
<path d="M85.9118 56.5252C84.1098 51.0763 78.8405 50.4834 74.1156 48.8967C67.8694 46.4447 62.8721 41.5406 66.2358 34.7294" stroke="black" stroke-width="2.07579" stroke-linecap="round"/>
<path d="M85.9118 49.7789C82.0247 39.9927 70.1914 46.0771 66.1918 34.7294" stroke="black" stroke-width="2.07579" stroke-linecap="round"/>
<g clip-path="url(#clip0_15_432)">
<path d="M21.5439 122.423H157.89V144.462H25.132L21.5439 122.423Z" fill="black"/>
<path d="M31.0905 146.86L23.9358 144.761L22.4408 119.537H40.68L31.0905 146.86Z" fill="url(#paint0_linear_15_432)"/>
<path d="M79.2265 131.594H77.4792C77.4294 131.308 77.3375 131.054 77.2036 130.833C77.0696 130.609 76.903 130.419 76.7037 130.263C76.5043 130.107 76.277 129.99 76.0216 129.912C75.7693 129.831 75.4968 129.791 75.204 129.791C74.6838 129.791 74.2229 129.922 73.8211 130.183C73.4193 130.442 73.1047 130.822 72.8774 131.323C72.65 131.822 72.5363 132.431 72.5363 133.15C72.5363 133.882 72.65 134.499 72.8774 135C73.1079 135.499 73.4224 135.875 73.8211 136.131C74.2229 136.383 74.6823 136.509 75.1993 136.509C75.4859 136.509 75.7537 136.472 76.0029 136.397C76.2552 136.319 76.481 136.206 76.6803 136.056C76.8828 135.907 77.0525 135.723 77.1896 135.505C77.3297 135.287 77.4263 135.038 77.4792 134.757L79.2265 134.767C79.1611 135.221 79.0194 135.648 78.8014 136.047C78.5865 136.445 78.3046 136.797 77.9558 137.103C77.6069 137.405 77.1989 137.641 76.7317 137.813C76.2645 137.981 75.7459 138.065 75.176 138.065C74.335 138.065 73.5844 137.87 72.9241 137.481C72.2638 137.092 71.7436 136.529 71.3637 135.794C70.9837 135.059 70.7937 134.178 70.7937 133.15C70.7937 132.119 70.9852 131.238 71.3683 130.506C71.7514 129.771 72.2731 129.209 72.9334 128.819C73.5937 128.43 74.3412 128.235 75.176 128.235C75.7086 128.235 76.2038 128.31 76.6616 128.459C77.1195 128.609 77.5275 128.829 77.8857 129.118C78.2439 129.405 78.5382 129.757 78.7687 130.174C79.0023 130.588 79.1549 131.062 79.2265 131.594ZM82.8041 138.079C82.3493 138.079 81.9397 137.998 81.5753 137.836C81.214 137.671 80.9275 137.428 80.7157 137.107C80.507 136.786 80.4027 136.391 80.4027 135.921C80.4027 135.516 80.4774 135.181 80.6269 134.916C80.7764 134.651 80.9804 134.44 81.239 134.281C81.4975 134.122 81.7887 134.002 82.1126 133.921C82.4396 133.837 82.7776 133.776 83.1264 133.739C83.5469 133.695 83.8879 133.656 84.1496 133.622C84.4112 133.585 84.6012 133.529 84.7195 133.454C84.841 133.376 84.9018 133.256 84.9018 133.094V133.066C84.9018 132.714 84.7974 132.442 84.5887 132.248C84.3801 132.055 84.0795 131.959 83.6871 131.959C83.2728 131.959 82.9442 132.049 82.7013 132.23C82.4614 132.41 82.2995 132.624 82.2154 132.87L80.6363 132.646C80.7609 132.21 80.9664 131.845 81.253 131.552C81.5395 131.256 81.8899 131.035 82.3042 130.889C82.7184 130.739 83.1763 130.665 83.6777 130.665C84.0234 130.665 84.3676 130.705 84.7102 130.786C85.0528 130.867 85.3658 131.001 85.6493 131.188C85.9327 131.372 86.1601 131.622 86.3314 131.94C86.5058 132.258 86.593 132.655 86.593 133.131V137.934H84.9672V136.948H84.9111C84.8083 137.148 84.6635 137.335 84.4766 137.509C84.2928 137.68 84.0608 137.819 83.7805 137.925C83.5033 138.028 83.1778 138.079 82.8041 138.079ZM83.2432 136.836C83.5827 136.836 83.877 136.769 84.1262 136.635C84.3754 136.498 84.5669 136.318 84.7009 136.093C84.8379 135.869 84.9064 135.625 84.9064 135.36V134.514C84.8535 134.558 84.7632 134.598 84.6355 134.636C84.5109 134.673 84.3707 134.706 84.215 134.734C84.0592 134.762 83.9051 134.787 83.7525 134.809C83.5998 134.83 83.4675 134.849 83.3553 134.865C83.1031 134.899 82.8772 134.955 82.6779 135.033C82.4786 135.111 82.3213 135.22 82.206 135.36C82.0908 135.497 82.0332 135.675 82.0332 135.893C82.0332 136.204 82.1469 136.439 82.3742 136.598C82.6016 136.757 82.8913 136.836 83.2432 136.836ZM90.9566 138.06C90.3928 138.06 89.8883 137.915 89.4429 137.626C88.9975 137.336 88.6455 136.916 88.387 136.364C88.1285 135.813 87.9992 135.143 87.9992 134.355C87.9992 133.558 88.1301 132.885 88.3917 132.337C88.6564 131.786 89.013 131.37 89.4616 131.09C89.9101 130.806 90.41 130.665 90.9612 130.665C91.3817 130.665 91.7274 130.736 91.9984 130.88C92.2694 131.02 92.4843 131.189 92.6431 131.389C92.802 131.585 92.925 131.77 93.0122 131.945H93.0823V128.366H94.7782V137.934H93.115V136.804H93.0122C92.925 136.978 92.7989 137.163 92.6338 137.36C92.4687 137.553 92.2507 137.718 91.9797 137.855C91.7088 137.992 91.3677 138.06 90.9566 138.06ZM91.4284 136.673C91.7866 136.673 92.0918 136.576 92.3441 136.383C92.5964 136.187 92.788 135.914 92.9188 135.566C93.0496 135.217 93.115 134.81 93.115 134.346C93.115 133.882 93.0496 133.479 92.9188 133.136C92.7911 132.793 92.6011 132.527 92.3488 132.337C92.0996 132.147 91.7928 132.052 91.4284 132.052C91.0516 132.052 90.737 132.15 90.4847 132.347C90.2324 132.543 90.0424 132.814 89.9147 133.159C89.787 133.505 89.7232 133.901 89.7232 134.346C89.7232 134.795 89.787 135.195 89.9147 135.547C90.0455 135.896 90.2371 136.171 90.4894 136.374C90.7448 136.573 91.0578 136.673 91.4284 136.673ZM99.2434 138.06C98.6797 138.06 98.1751 137.915 97.7297 137.626C97.2843 137.336 96.9324 136.916 96.6738 136.364C96.4153 135.813 96.2861 135.143 96.2861 134.355C96.2861 133.558 96.4169 132.885 96.6785 132.337C96.9433 131.786 97.2999 131.37 97.7484 131.09C98.1969 130.806 98.6968 130.665 99.2481 130.665C99.6686 130.665 100.014 130.736 100.285 130.88C100.556 131.02 100.771 131.189 100.93 131.389C101.089 131.585 101.212 131.77 101.299 131.945H101.369V128.366H103.065V137.934H101.402V136.804H101.299C101.212 136.978 101.086 137.163 100.921 137.36C100.756 137.553 100.538 137.718 100.267 137.855C99.9956 137.992 99.6545 138.06 99.2434 138.06ZM99.7153 136.673C100.073 136.673 100.379 136.576 100.631 136.383C100.883 136.187 101.075 135.914 101.206 135.566C101.336 135.217 101.402 134.81 101.402 134.346C101.402 133.882 101.336 133.479 101.206 133.136C101.078 132.793 100.888 132.527 100.636 132.337C100.386 132.147 100.08 132.052 99.7153 132.052C99.3384 132.052 99.0238 132.15 98.7715 132.347C98.5193 132.543 98.3293 132.814 98.2016 133.159C98.0739 133.505 98.01 133.901 98.01 134.346C98.01 134.795 98.0739 135.195 98.2016 135.547C98.3324 135.896 98.5239 136.171 98.7762 136.374C99.0316 136.573 99.3446 136.673 99.7153 136.673ZM105.918 140.625C105.688 140.625 105.475 140.607 105.278 140.569C105.085 140.535 104.931 140.494 104.816 140.448L105.208 139.13C105.454 139.202 105.674 139.236 105.867 139.233C106.06 139.23 106.23 139.169 106.376 139.051C106.526 138.936 106.652 138.742 106.755 138.471L106.9 138.084L104.297 130.758H106.091L107.745 136.178H107.82L109.478 130.758H111.277L108.404 138.803C108.27 139.183 108.092 139.509 107.871 139.78C107.65 140.054 107.379 140.262 107.058 140.406C106.741 140.552 106.361 140.625 105.918 140.625Z" fill="white"/>
</g>
<defs>
<linearGradient id="paint0_linear_15_432" x1="48.2698" y1="117.917" x2="54.9792" y2="131.087" gradientUnits="userSpaceOnUse">
<stop offset="0.005" stop-color="#A20763"/>
<stop offset="1" stop-color="#C50878"/>
</linearGradient>
<clipPath id="clip0_15_432">
<rect width="123.189" height="21.5283" fill="white" transform="translate(25.0548 122.934)"/>
</clipPath>
</defs>
</svg>
