<svg width="170" height="160" viewBox="0 0 170 160" fill="none" xmlns="http://www.w3.org/2000/svg">
<rect width="168.638" height="159.07" transform="translate(0.695679 0.104843)" fill="white"/>
<circle cx="84.1756" cy="80.3107" r="60.3146" fill="white" stroke="black" stroke-width="2.82173"/>
<path d="M94.9771 33.7107C93.958 36.259 95.2017 39.1602 97.7499 40.1793C100.298 41.1984 103.199 39.9547 104.218 37.4065C105.238 34.8583 103.994 31.957 101.446 30.9379C98.8975 29.9188 95.9958 31.1634 94.9771 33.7107ZM102.378 36.6704C101.765 38.2036 100.019 38.9519 98.486 38.3387C96.9537 37.726 96.2045 35.98 96.8177 34.4468C97.4308 32.9136 99.177 32.1666 100.709 32.7794C102.242 33.3925 102.991 35.1382 102.378 36.6704Z" fill="black"/>
<path d="M102.746 25.0151L100.006 31.8671C99.8862 32.1674 100.201 32.576 100.709 32.7791C101.217 32.9823 101.727 32.9034 101.847 32.6031L104.587 25.7512C104.707 25.4509 104.392 25.0423 103.884 24.8391C103.376 24.6359 102.867 24.7143 102.746 25.0151Z" fill="black"/>
<path d="M103.794 43.9584C102.775 46.5067 104.019 49.4079 106.567 50.427C109.115 51.4461 112.016 50.2024 113.035 47.6542C114.054 45.106 112.811 42.2047 110.263 41.1856C107.714 40.1665 104.813 41.4111 103.794 43.9584ZM111.195 46.9181C110.582 48.4513 108.836 49.1996 107.303 48.5864C105.771 47.9737 105.021 46.2277 105.635 44.6945C106.248 43.1613 107.994 42.4143 109.526 43.0271C111.059 43.6402 111.808 45.3859 111.195 46.9181Z" fill="black"/>
<path d="M113.431 30.596L108.961 41.7719C108.765 42.2617 109.019 42.8242 109.527 43.0273C110.034 43.2305 110.606 42.9978 110.802 42.5079L115.271 31.332C115.467 30.8422 115.214 30.2797 114.706 30.0766C114.198 29.8734 113.627 30.1052 113.431 30.596Z" fill="black"/>
<path d="M80.7801 35.1096C79.761 37.6579 81.0047 40.5591 83.5529 41.5782C86.1011 42.5973 89.0024 41.3536 90.0215 38.8054C91.0405 36.2572 89.7969 33.3559 87.2487 32.3368C84.7004 31.3177 81.7988 32.5623 80.7801 35.1096ZM88.1809 38.0693C87.5678 39.6025 85.8221 40.3508 84.289 39.7376C82.7567 39.1249 82.0075 37.3789 82.6206 35.8457C83.2338 34.3125 84.98 33.5655 86.5122 34.1783C88.0454 34.7914 88.7937 36.5371 88.1809 38.0693Z" fill="black"/>
<path d="M90.4165 21.7472L85.9471 32.9231C85.7512 33.4129 86.0045 33.9754 86.5125 34.1785C87.0205 34.3817 87.5917 34.149 87.7876 33.6591L92.257 22.4832C92.4529 21.9934 92.1996 21.4309 91.6917 21.2278C91.1837 21.0246 90.6128 21.2564 90.4165 21.7472Z" fill="black"/>
<rect x="50.9862" y="59.9393" width="66.3788" height="43.0565" fill="#9C0000"/>
<path d="M50.9862 76.6835V85.0556C50.9862 85.0556 50.9862 96.4178 50.9862 98.8098C50.9862 101.202 52.1822 102.996 55.1723 102.996C58.1623 102.996 85.3716 102.996 85.3716 102.996C85.3716 102.996 109.591 102.996 113.179 102.996C116.767 102.996 117.365 101.8 117.365 98.8098C117.365 95.8198 117.365 81.4676 117.365 81.4676C117.365 81.4676 117.365 67.1154 117.365 64.1253C117.365 61.1353 115.571 59.9393 113.179 59.9393C110.787 59.9393 85.3716 59.9393 85.3716 59.9393C85.3716 59.9393 58.1622 59.9393 55.1723 59.9393C52.1823 59.9393 50.9862 61.1353 50.9862 64.1253C50.9862 67.1154 50.9862 67.1154 50.9862 68.3115" stroke="black" stroke-width="2.39203" stroke-linecap="round"/>
<path d="M98.1447 53.3851C95.1546 48.6011 88.5766 48.0031 84.3905 48.0031C80.2045 48.0031 71.8324 48.6011 70.0383 53.3851" stroke="black" stroke-width="1.79402" stroke-linecap="round"/>
<path d="M69.1451 57.3278C69.1451 56.9732 69.3057 56.3752 69.3057 56.3752" stroke="black" stroke-width="1.79402" stroke-linecap="round"/>
<path d="M99.2062 57.3278C99.2062 56.9732 99.0456 56.3752 99.0456 56.3752" stroke="black" stroke-width="1.79402" stroke-linecap="round"/>
<g clip-path="url(#clip0_15_376)">
<path d="M85.6846 74.1151V74.3547L85.3946 74.2033L85.6846 74.1151ZM84.0963 72.4109H84.5221L84.3092 73.1205L84.0963 72.4109ZM82.9338 74.3547V74.1472C83.0182 74.1746 83.1027 74.2014 83.182 74.2252L82.9338 74.3547ZM84.4801 74.1452H84.1383L84.2537 74.0298L84.3092 73.9743L84.3648 74.0298L84.4801 74.1452ZM83.6221 77.32L84.3294 75.1438L85.0561 77.3798L85.0699 77.4224L85.084 77.4505C85.0847 77.4567 85.0855 77.4667 85.086 77.4828C85.0866 77.5018 85.0866 77.5224 85.0866 77.5538C85.0866 77.7923 84.8401 78.1163 84.481 78.2116H84.1905C83.8221 78.1249 83.5916 77.8274 83.5916 77.494C83.5916 77.4626 83.5916 77.442 83.5922 77.423C83.5927 77.4069 83.5935 77.3969 83.5942 77.3907L83.6083 77.3626L83.6221 77.32ZM84.7784 83.7133C84.6539 83.8868 84.5288 84.0768 84.4232 84.2692C84.3147 84.0797 84.1866 83.8887 84.0603 83.7133H84.7784ZM82.8719 85.3076C82.8769 85.3096 82.882 85.3116 82.887 85.3135C82.8825 85.3167 82.8779 85.3198 82.8733 85.323L82.8719 85.3076ZM79.6678 83.4079C79.708 83.6491 79.6868 83.9248 79.5989 84.2562C79.3701 83.9439 79.264 83.6729 79.2375 83.4314C79.2151 83.2271 79.2452 83.0014 79.3561 82.7416C79.543 82.9748 79.6324 83.1953 79.6678 83.4079ZM75.6824 84.8247L75.7675 84.7983C75.765 84.8527 75.7639 84.9066 75.7644 84.9603C75.7371 84.9145 75.7098 84.8693 75.6824 84.8247ZM77.4025 89.092C77.2631 88.5659 77.1186 88.0861 76.9698 87.6464C77.5589 88.2825 78.2378 88.558 78.8611 88.4268C79.4908 88.3172 79.9184 87.9453 80.125 87.4852C80.2753 87.6505 80.4547 87.7903 80.6454 87.9008C81.0115 88.1132 81.4586 88.2458 81.9463 88.2696L81.9489 88.2978L81.9683 88.2706C82.1248 88.2772 82.2855 88.2726 82.4489 88.2558C83.4148 88.182 84.0331 87.7806 84.3707 87.1616C84.3869 87.1319 84.4023 87.1019 84.417 87.0717C84.4332 87.1043 84.4504 87.1367 84.4685 87.1689C84.8154 87.7844 85.4464 88.1819 86.407 88.2557C86.5707 88.2733 86.7317 88.2776 86.8887 88.2698L86.9087 88.2978L86.9115 88.2685C87.3788 88.2418 87.81 88.1081 88.1674 87.9008C88.3757 87.78 88.5701 87.6267 88.7311 87.4458C88.9471 87.9317 89.4011 88.3185 90.0029 88.4279L90.0233 88.4316L90.0438 88.4339C90.5172 88.4865 91.0488 88.3387 91.551 87.9428C91.4364 88.2997 91.3246 88.6818 91.2159 89.092C89.1088 88.8308 86.7597 88.6767 84.3092 88.6767C81.8587 88.6767 79.5096 88.8308 77.4025 89.092ZM79.8282 85.7122C79.72 85.6031 79.5927 85.5135 79.447 85.4531L79.7335 85.0815L80.1075 85.3204C79.9885 85.4313 79.8956 85.5652 79.8282 85.7122ZM85.9496 85.2994C85.9624 85.2943 85.9752 85.2891 85.9879 85.2839L85.9843 85.323C85.9727 85.315 85.9612 85.3071 85.9496 85.2994ZM89.4106 85.4531C89.2649 85.5135 89.1376 85.6031 89.0294 85.7122C88.9599 85.5607 88.8634 85.4231 88.739 85.3102L89.1228 85.0798L89.4106 85.4531ZM89.6202 83.4529C89.5943 83.6858 89.491 83.9462 89.2637 84.2533C89.1713 83.9047 89.1491 83.6263 89.1895 83.3869C89.2239 83.1836 89.31 82.973 89.4936 82.746C89.6115 83.0209 89.6427 83.2501 89.6202 83.4529ZM80.6052 77.4857L80.5949 77.4812L80.5845 77.477C80.3072 77.3661 80.2068 77.074 80.3108 76.8399C80.4335 76.5639 80.7584 76.4573 80.9567 76.5455C81.2327 76.6681 81.3392 76.9931 81.2511 77.1913C81.1284 77.4673 80.8035 77.5739 80.6052 77.4857ZM75.7016 82.1502L75.6913 82.1456L75.6808 82.1414C75.4035 82.0305 75.3031 81.7385 75.4072 81.5043L74.8607 81.2615L75.4072 81.5043C75.5298 81.2283 75.8548 81.1218 76.053 81.2099C76.329 81.3326 76.4356 81.6575 76.3474 81.8558C76.2248 82.1318 75.8998 82.2383 75.7016 82.1502ZM88.0233 77.4811C87.7571 77.5817 87.4878 77.4624 87.3673 77.1913C87.2792 76.9931 87.3857 76.6681 87.6617 76.5455C87.86 76.4573 88.1849 76.5639 88.3076 76.8399C88.3946 77.0357 88.2918 77.3551 88.0233 77.4811ZM84.4849 81.4924C84.2867 81.5805 83.9617 81.474 83.8391 81.198C83.7509 80.9997 83.8575 80.6748 84.1335 80.5521C84.3318 80.464 84.6567 80.5705 84.7794 80.8465C84.8675 81.0448 84.7609 81.3697 84.4849 81.4924ZM90.9642 79.271C90.6945 79.3789 90.4196 79.26 90.2975 78.9854C90.2094 78.7871 90.316 78.4621 90.592 78.3395C90.7902 78.2514 91.1152 78.3579 91.2378 78.6339C91.3419 78.868 91.2415 79.1601 90.9642 79.271ZM93.2113 81.5043C93.2983 81.7002 93.1954 82.0195 92.927 82.1456C92.6607 82.2462 92.3914 82.1268 92.271 81.8558C92.1828 81.6575 92.2894 81.3326 92.5654 81.2099C92.7637 81.1218 93.0886 81.2283 93.2113 81.5043ZM78.2611 78.9854C78.1384 79.2613 77.8135 79.3679 77.6152 79.2798C77.3392 79.1571 77.2327 78.8322 77.3208 78.6339C77.4434 78.3579 77.7684 78.2514 77.9667 78.3395C78.2426 78.4621 78.3492 78.7871 78.2611 78.9854Z" fill="#EFDB5D" stroke="#EFDB5D" stroke-width="1.19601"/>
</g>
<g clip-path="url(#clip1_15_376)">
<path d="M20.3964 121.827H156.742V143.866H23.9844L20.3964 121.827Z" fill="black"/>
<path d="M29.9431 146.264L22.7884 144.165L21.2933 118.941H39.5326L29.9431 146.264Z" fill="url(#paint0_linear_15_376)"/>
<path d="M66.6513 137.338V127.77H70.2393C70.9744 127.77 71.5911 127.897 72.0894 128.153C72.5909 128.408 72.9693 128.766 73.2247 129.227C73.4832 129.685 73.6124 130.219 73.6124 130.83C73.6124 131.443 73.4816 131.976 73.22 132.428C72.9615 132.876 72.58 133.223 72.0754 133.469C71.5708 133.712 70.951 133.834 70.216 133.834H67.6604V132.395H69.9824C70.4122 132.395 70.7641 132.336 71.0382 132.217C71.3123 132.096 71.5148 131.92 71.6456 131.689C71.7795 131.456 71.8465 131.169 71.8465 130.83C71.8465 130.49 71.7795 130.201 71.6456 129.961C71.5116 129.718 71.3076 129.534 71.0335 129.41C70.7595 129.282 70.4059 129.218 69.973 129.218H68.3846V137.338H66.6513ZM71.5942 133.002L73.9628 137.338H72.0287L69.702 133.002H71.5942ZM78.2073 137.478C77.4878 137.478 76.8664 137.328 76.3432 137.029C75.823 136.727 75.4228 136.301 75.1425 135.749C74.8622 135.195 74.722 134.542 74.722 133.792C74.722 133.054 74.8622 132.406 75.1425 131.848C75.4259 131.288 75.8215 130.852 76.3292 130.54C76.8369 130.226 77.4333 130.068 78.1185 130.068C78.5608 130.068 78.9782 130.14 79.3706 130.283C79.7662 130.423 80.115 130.641 80.4171 130.937C80.7223 131.233 80.9622 131.61 81.1366 132.068C81.311 132.523 81.3982 133.065 81.3982 133.694V134.212H75.5163V133.072H79.7771C79.7739 132.748 79.7039 132.46 79.5668 132.208C79.4298 131.953 79.2382 131.752 78.9922 131.605C78.7492 131.459 78.4658 131.386 78.1419 131.386C77.7962 131.386 77.4925 131.47 77.2309 131.638C76.9692 131.803 76.7652 132.021 76.6188 132.292C76.4756 132.56 76.4024 132.854 76.3993 133.175V134.17C76.3993 134.588 76.4756 134.946 76.6282 135.245C76.7808 135.541 76.9941 135.768 77.2682 135.927C77.5423 136.083 77.8631 136.16 78.2307 136.16C78.4767 136.16 78.6994 136.126 78.8987 136.058C79.0981 135.986 79.2709 135.882 79.4173 135.745C79.5637 135.608 79.6743 135.438 79.749 135.235L81.3281 135.413C81.2285 135.83 81.0385 136.195 80.7582 136.506C80.481 136.815 80.1259 137.054 79.693 137.226C79.26 137.394 78.7648 137.478 78.2073 137.478ZM85.492 137.464C84.9283 137.464 84.4237 137.319 83.9783 137.029C83.5329 136.74 83.181 136.319 82.9224 135.768C82.6639 135.217 82.5347 134.547 82.5347 133.759C82.5347 132.962 82.6655 132.289 82.9271 131.741C83.1919 131.19 83.5485 130.774 83.997 130.493C84.4455 130.21 84.9454 130.068 85.4967 130.068C85.9171 130.068 86.2629 130.14 86.5338 130.283C86.8048 130.423 87.0197 130.593 87.1786 130.792C87.3374 130.989 87.4604 131.174 87.5477 131.348H87.6177V127.77H89.3136V137.338H87.6504V136.207H87.5477C87.4604 136.382 87.3343 136.567 87.1692 136.763C87.0041 136.956 86.7861 137.121 86.5152 137.258C86.2442 137.395 85.9031 137.464 85.492 137.464ZM85.9639 136.076C86.322 136.076 86.6273 135.98 86.8796 135.787C87.1318 135.591 87.3234 135.318 87.4542 134.969C87.585 134.62 87.6504 134.214 87.6504 133.75C87.6504 133.286 87.585 132.882 87.4542 132.54C87.3265 132.197 87.1365 131.931 86.8842 131.741C86.6351 131.551 86.3283 131.456 85.9639 131.456C85.587 131.456 85.2724 131.554 85.0201 131.75C84.7679 131.946 84.5779 132.217 84.4502 132.563C84.3225 132.909 84.2586 133.304 84.2586 133.75C84.2586 134.198 84.3225 134.599 84.4502 134.95C84.581 135.299 84.7725 135.575 85.0248 135.777C85.2802 135.977 85.5932 136.076 85.9639 136.076ZM91.1906 137.338V127.77H92.8818V131.348H92.9519C93.0391 131.174 93.1621 130.989 93.321 130.792C93.4798 130.593 93.6947 130.423 93.9657 130.283C94.2367 130.14 94.5824 130.068 95.0029 130.068C95.5573 130.068 96.0572 130.21 96.5026 130.493C96.9511 130.774 97.3061 131.19 97.5678 131.741C97.8325 132.289 97.9649 132.962 97.9649 133.759C97.9649 134.547 97.8356 135.217 97.5771 135.768C97.3186 136.319 96.9667 136.74 96.5213 137.029C96.0759 137.319 95.5713 137.464 95.0076 137.464C94.5964 137.464 94.2554 137.395 93.9844 137.258C93.7134 137.121 93.4954 136.956 93.3303 136.763C93.1684 136.567 93.0422 136.382 92.9519 136.207H92.8538V137.338H91.1906ZM92.8491 133.75C92.8491 134.214 92.9145 134.62 93.0453 134.969C93.1793 135.318 93.3708 135.591 93.62 135.787C93.8723 135.98 94.1775 136.076 94.5357 136.076C94.9094 136.076 95.2225 135.977 95.4747 135.777C95.727 135.575 95.917 135.299 96.0447 134.95C96.1755 134.599 96.2409 134.198 96.2409 133.75C96.2409 133.304 96.1771 132.909 96.0494 132.563C95.9217 132.217 95.7317 131.946 95.4794 131.75C95.2271 131.554 94.9126 131.456 94.5357 131.456C94.1744 131.456 93.8676 131.551 93.6153 131.741C93.363 131.931 93.1715 132.197 93.0407 132.54C92.913 132.882 92.8491 133.286 92.8491 133.75ZM102.533 137.478C101.832 137.478 101.225 137.324 100.711 137.015C100.197 136.707 99.7982 136.276 99.5148 135.721C99.2345 135.167 99.0943 134.519 99.0943 133.778C99.0943 133.037 99.2345 132.387 99.5148 131.83C99.7982 131.272 100.197 130.839 100.711 130.531C101.225 130.222 101.832 130.068 102.533 130.068C103.234 130.068 103.841 130.222 104.355 130.531C104.869 130.839 105.266 131.272 105.546 131.83C105.83 132.387 105.971 133.037 105.971 133.778C105.971 134.519 105.83 135.167 105.546 135.721C105.266 136.276 104.869 136.707 104.355 137.015C103.841 137.324 103.234 137.478 102.533 137.478ZM102.542 136.123C102.922 136.123 103.24 136.019 103.495 135.81C103.751 135.598 103.941 135.315 104.065 134.96C104.193 134.605 104.257 134.209 104.257 133.773C104.257 133.334 104.193 132.937 104.065 132.582C103.941 132.224 103.751 131.939 103.495 131.727C103.24 131.515 102.922 131.409 102.542 131.409C102.153 131.409 101.829 131.515 101.57 131.727C101.315 131.939 101.123 132.224 100.996 132.582C100.871 132.937 100.809 133.334 100.809 133.773C100.809 134.209 100.871 134.605 100.996 134.96C101.123 135.315 101.315 135.598 101.57 135.81C101.829 136.019 102.153 136.123 102.542 136.123ZM108.52 130.162L109.968 132.811L111.44 130.162H113.229L111.066 133.75L113.267 137.338H111.487L109.968 134.754L108.464 137.338H106.67L108.856 133.75L106.726 130.162H108.52Z" fill="white"/>
</g>
<defs>
<linearGradient id="paint0_linear_15_376" x1="47.1223" y1="117.321" x2="53.8317" y2="130.491" gradientUnits="userSpaceOnUse">
<stop offset="0.005" stop-color="#A20763"/>
<stop offset="1" stop-color="#C50878"/>
</linearGradient>
<clipPath id="clip0_15_376">
<rect width="19.1362" height="17.9402" fill="white" transform="translate(74.7411 71.8129)"/>
</clipPath>
<clipPath id="clip1_15_376">
<rect width="123.189" height="21.5283" fill="white" transform="translate(23.9072 122.338)"/>
</clipPath>
</defs>
</svg>
