<svg width="169" height="160" viewBox="0 0 169 160" fill="none" xmlns="http://www.w3.org/2000/svg">
<rect width="168.638" height="159.07" transform="translate(0.0263672 0.475342)" fill="white"/>
<circle cx="83.3795" cy="81.6719" r="60.3146" fill="white" stroke="black" stroke-width="2.82173"/>
<g clip-path="url(#clip0_15_403)">
<path d="M88.1778 105.838H87.1196V106.896V115.592C87.1196 116.131 86.4676 116.401 86.0867 116.019L85.3382 116.767L86.0867 116.019L76.2249 106.149L75.915 105.838H75.4764H41.067C40.2826 105.838 39.6485 105.203 39.6485 104.421V64.6444C39.6485 63.8618 40.2831 63.2267 41.0662 63.2267H73.2097H96.4228L96.7346 98.5908V98.5953V104.421C96.7346 105.203 96.1 105.838 95.3169 105.838H88.1778Z" fill="#0B8478" stroke="black" stroke-width="2.1163"/>
<path d="M85.4698 74.7473H50.9178C50.0391 74.7473 49.3259 74.3033 49.3259 73.7562C49.3259 73.2091 50.0391 72.7651 50.9178 72.7651H85.4698C86.3501 72.7651 87.0616 73.2091 87.0616 73.7562C87.0616 74.3033 86.3485 74.7473 85.4698 74.7473Z" fill="black"/>
<path d="M85.4649 82.1922H50.9129C50.0342 82.1922 49.321 81.7481 49.321 81.201C49.321 80.6539 50.0342 80.2099 50.9129 80.2099H85.4649C86.3452 80.2099 87.0568 80.6539 87.0568 81.201C87.0568 81.7481 86.3436 82.1922 85.4649 82.1922Z" fill="black"/>
<path d="M85.4696 89.637H50.9177C50.039 89.637 49.3258 89.193 49.3258 88.6459C49.3258 88.0988 50.039 87.6548 50.9177 87.6548H85.4696C86.3499 87.6548 87.0615 88.0988 87.0615 88.6459C87.0615 89.193 86.3484 89.637 85.4696 89.637Z" fill="black"/>
<path d="M85.4649 97.0818H50.9129C50.0342 97.0818 49.321 96.6378 49.321 96.0907C49.321 95.5436 50.0342 95.0995 50.9129 95.0995H85.4649C86.3452 95.0995 87.0568 95.5436 87.0568 96.0907C87.0568 96.6378 86.3436 97.0818 85.4649 97.0818Z" fill="black"/>
<path d="M82.6557 67.6954L82.6557 67.6953C83.3373 56.7151 92.2827 47.7696 103.264 47.0881C116.088 46.2925 126.734 56.4556 126.734 69.1056C126.734 77.3536 122.204 84.5419 115.494 88.3278L114.956 88.6314V89.2494V97.8772C114.956 98.4164 114.304 98.686 113.923 98.3048L113.923 98.3048L107.038 91.4144L106.698 91.0737L106.217 91.1066C105.697 91.1424 105.185 91.1666 104.673 91.1666C92.0223 91.1666 81.8593 80.5194 82.6557 67.6954Z" fill="#C50878" stroke="black" stroke-width="2.1163"/>
<path d="M105.155 73.9864C104.278 73.9864 103.566 73.2745 103.566 72.3973V71.0379C103.566 70.601 103.746 70.183 104.064 69.8827L108.202 65.9761C108.918 65.238 109.339 64.2019 109.339 63.1055V62.9522C109.339 61.8144 108.89 60.7506 108.075 59.9561C107.261 59.1615 106.187 58.7397 105.044 58.7699C102.798 58.8279 100.971 60.7617 100.971 63.0825C100.971 63.9596 100.259 64.6715 99.3818 64.6715C98.5046 64.6715 97.7927 63.9596 97.7927 63.0825C97.7927 59.0543 101.009 55.6951 104.962 55.5926C105.028 55.591 105.093 55.5902 105.157 55.5902C107.089 55.5902 108.906 56.3275 110.294 57.6798C111.728 59.0773 112.517 60.95 112.517 62.9522V63.1055C112.517 65.0338 111.776 66.8572 110.432 68.2397L106.744 71.7228V72.3973C106.744 73.2745 106.032 73.9864 105.155 73.9864Z" fill="#EFDB5D"/>
<path d="M105.152 81.1338C105.001 81.1338 104.842 81.1179 104.691 81.0861C104.54 81.0623 104.389 81.0138 104.246 80.951C104.102 80.8954 103.96 80.8152 103.832 80.7357C103.697 80.6483 103.578 80.545 103.466 80.4338C103.021 79.9968 102.767 79.3771 102.767 78.7494C102.767 78.1218 103.021 77.51 103.466 77.0651C103.578 76.9538 103.697 76.8585 103.832 76.7711C103.959 76.6837 104.102 76.6122 104.246 76.5486C104.389 76.493 104.539 76.4454 104.691 76.4136C105.461 76.2547 106.288 76.5089 106.836 77.0651C107.281 77.51 107.535 78.1218 107.535 78.7494C107.535 79.3771 107.281 79.9968 106.836 80.4338C106.39 80.8787 105.779 81.1338 105.152 81.1338Z" fill="#EFDB5D"/>
</g>
<path d="M53.644 48.542C54.774 51.043 57.7271 52.158 60.2281 51.028C62.7291 49.898 63.8442 46.9449 62.7142 44.4439C61.5842 41.9429 58.6311 40.8279 56.1301 41.9579C53.629 43.0879 52.5144 46.0419 53.644 48.542ZM60.9077 45.2601C61.5876 46.7649 60.9167 48.5417 59.4119 49.2216C57.9081 49.9011 56.1303 49.2306 55.4505 47.7258C54.7706 46.221 55.4428 44.4447 56.9466 43.7652C58.4514 43.0853 60.2282 43.7562 60.9077 45.2601Z" fill="black"/>
<path d="M50.4957 31.8949L55.6352 43.2701C55.8605 43.7687 56.4479 43.9905 56.9465 43.7652C57.4451 43.54 57.6669 42.9525 57.4416 42.4539L52.3021 31.0788C52.0769 30.5802 51.4894 30.3584 50.9908 30.5836C50.4922 30.8089 50.27 31.3955 50.4957 31.8949Z" fill="black"/>
<path d="M67.1421 49.2918C68.2721 51.7928 71.2251 52.9079 73.7262 51.7779C76.2272 50.6479 77.3422 47.6948 76.2122 45.1938C75.0822 42.6928 72.1291 41.5777 69.6281 42.7077C67.1271 43.8377 66.0125 46.7917 67.1421 49.2918ZM74.4058 46.01C75.0856 47.5147 74.4147 49.2916 72.91 49.9714C71.4061 50.6509 69.6284 49.9804 68.9485 48.4756C68.2686 46.9709 68.9408 45.1945 70.4447 44.5151C71.9495 43.8352 73.7263 44.5061 74.4058 46.01Z" fill="black"/>
<path d="M61.6006 27.347L68.9577 43.6302C69.2801 44.3439 69.9465 44.7404 70.445 44.5151C70.9436 44.2898 71.0866 43.5278 70.7641 42.8141L63.407 26.5308C63.0846 25.8171 62.4182 25.4207 61.9196 25.6459C61.421 25.8712 61.2775 26.632 61.6006 27.347Z" fill="black"/>
<path d="M76.0529 39.0307C77.183 41.5317 80.136 42.6467 82.637 41.5167C85.1381 40.3867 86.2531 37.4337 85.1231 34.9326C83.9931 32.4316 81.04 31.3166 78.539 32.4466C76.038 33.5766 74.9233 36.5306 76.0529 39.0307ZM83.3167 35.7488C83.9965 37.2536 83.3256 39.0304 81.8209 39.7103C80.317 40.3898 78.5393 39.7193 77.8594 38.2145C77.1795 36.7097 77.8517 34.9334 79.3556 34.2539C80.8604 33.5741 82.6372 34.245 83.3167 35.7488Z" fill="black"/>
<path d="M73.422 23.5276L78.0826 33.843C78.2869 34.2951 78.8574 34.4792 79.3559 34.2539C79.8545 34.0287 80.0934 33.4789 79.8891 33.0268L75.2284 22.7114C75.0241 22.2593 74.4537 22.0752 73.9551 22.3004C73.4565 22.5257 73.2173 23.0746 73.422 23.5276Z" fill="black"/>
<g clip-path="url(#clip1_15_403)">
<path d="M19.601 123.189H155.947V145.228H23.189L19.601 123.189Z" fill="black"/>
<path d="M29.1477 147.626L21.9929 145.527L20.4979 120.303H38.7371L29.1477 147.626Z" fill="url(#paint0_linear_15_403)"/>
<path d="M73.3006 132.36H71.5533C71.5035 132.073 71.4116 131.819 71.2776 131.598C71.1437 131.374 70.9771 131.184 70.7777 131.028C70.5784 130.872 70.351 130.756 70.0956 130.678C69.8434 130.597 69.5708 130.556 69.2781 130.556C68.7579 130.556 68.2969 130.687 67.8952 130.949C67.4934 131.207 67.1788 131.587 66.9514 132.089C66.7241 132.587 66.6104 133.196 66.6104 133.915C66.6104 134.647 66.7241 135.264 66.9514 135.765C67.1819 136.264 67.4965 136.641 67.8952 136.896C68.2969 137.148 68.7564 137.274 69.2734 137.274C69.5599 137.274 69.8278 137.237 70.077 137.162C70.3292 137.084 70.555 136.971 70.7544 136.821C70.9568 136.672 71.1266 136.488 71.2636 136.27C71.4038 136.052 71.5003 135.803 71.5533 135.522L73.3006 135.532C73.2352 135.987 73.0935 136.413 72.8754 136.812C72.6605 137.211 72.3787 137.563 72.0298 137.868C71.681 138.17 71.273 138.407 70.8058 138.578C70.3386 138.746 69.82 138.83 69.25 138.83C68.4091 138.83 67.6585 138.635 66.9982 138.246C66.3379 137.857 65.8177 137.295 65.4377 136.56C65.0577 135.825 64.8678 134.943 64.8678 133.915C64.8678 132.884 65.0593 132.003 65.4424 131.271C65.8255 130.536 66.3472 129.974 67.0075 129.584C67.6678 129.195 68.4153 129 69.25 129C69.7826 129 70.2778 129.075 70.7357 129.225C71.1935 129.374 71.6016 129.594 71.9597 129.883C72.3179 130.17 72.6123 130.522 72.8427 130.939C73.0763 131.354 73.2289 131.827 73.3006 132.36ZM77.9433 138.839C77.2425 138.839 76.6352 138.685 76.1213 138.377C75.6074 138.069 75.2087 137.637 74.9253 137.083C74.6449 136.528 74.5048 135.881 74.5048 135.139C74.5048 134.398 74.6449 133.749 74.9253 133.191C75.2087 132.634 75.6074 132.201 76.1213 131.892C76.6352 131.584 77.2425 131.43 77.9433 131.43C78.6441 131.43 79.2515 131.584 79.7654 131.892C80.2793 132.201 80.6764 132.634 80.9567 133.191C81.2401 133.749 81.3819 134.398 81.3819 135.139C81.3819 135.881 81.2401 136.528 80.9567 137.083C80.6764 137.637 80.2793 138.069 79.7654 138.377C79.2515 138.685 78.6441 138.839 77.9433 138.839ZM77.9527 137.485C78.3326 137.485 78.6503 137.38 78.9057 137.172C79.1611 136.96 79.3511 136.676 79.4757 136.321C79.6034 135.966 79.6673 135.571 79.6673 135.135C79.6673 134.695 79.6034 134.298 79.4757 133.943C79.3511 133.585 79.1611 133.3 78.9057 133.088C78.6503 132.877 78.3326 132.771 77.9527 132.771C77.5633 132.771 77.2394 132.877 76.9809 133.088C76.7255 133.3 76.534 133.585 76.4063 133.943C76.2817 134.298 76.2194 134.695 76.2194 135.135C76.2194 135.571 76.2817 135.966 76.4063 136.321C76.534 136.676 76.7255 136.96 76.9809 137.172C77.2394 137.38 77.5633 137.485 77.9527 137.485ZM84.5085 134.495V138.699H82.8173V131.523H84.4338V132.743H84.5179C84.683 132.341 84.9462 132.022 85.3074 131.785C85.6719 131.548 86.1219 131.43 86.6576 131.43C87.1529 131.43 87.5842 131.536 87.9518 131.748C88.3224 131.959 88.6089 132.266 88.8114 132.668C89.017 133.07 89.1182 133.557 89.1151 134.13V138.699H87.4238V134.392C87.4238 133.912 87.2992 133.537 87.0501 133.266C86.804 132.995 86.463 132.859 86.0269 132.859C85.731 132.859 85.4679 132.925 85.2374 133.056C85.01 133.183 84.8309 133.369 84.7001 133.612C84.5724 133.855 84.5085 134.149 84.5085 134.495ZM96.5061 133.42L94.9643 133.588C94.9207 133.433 94.8444 133.286 94.7354 133.149C94.6295 133.012 94.4862 132.901 94.3056 132.817C94.1249 132.733 93.9038 132.691 93.6422 132.691C93.2902 132.691 92.9943 132.768 92.7545 132.92C92.5178 133.073 92.401 133.271 92.4041 133.513C92.401 133.722 92.4773 133.892 92.633 134.023C92.7919 134.154 93.0535 134.261 93.4179 134.345L94.642 134.607C95.321 134.753 95.8255 134.985 96.1557 135.303C96.4889 135.621 96.6571 136.036 96.6602 136.55C96.6571 137.002 96.5248 137.401 96.2631 137.746C96.0046 138.089 95.6449 138.357 95.1839 138.55C94.7229 138.743 94.1935 138.839 93.5955 138.839C92.7171 138.839 92.0101 138.656 91.4744 138.288C90.9387 137.918 90.6194 137.402 90.5167 136.742L92.1658 136.583C92.2406 136.907 92.3994 137.151 92.6424 137.316C92.8853 137.482 93.2015 137.564 93.5908 137.564C93.9926 137.564 94.3149 137.482 94.5579 137.316C94.8039 137.151 94.927 136.947 94.927 136.704C94.927 136.499 94.8475 136.329 94.6887 136.195C94.533 136.061 94.29 135.958 93.9599 135.887L92.7358 135.63C92.0475 135.487 91.5382 135.245 91.2081 134.906C90.8779 134.563 90.7144 134.13 90.7175 133.607C90.7144 133.165 90.8343 132.782 91.0773 132.458C91.3233 132.131 91.6644 131.878 92.1004 131.701C92.5396 131.52 93.0457 131.43 93.6188 131.43C94.4598 131.43 95.1216 131.609 95.6044 131.967C96.0903 132.325 96.3908 132.81 96.5061 133.42ZM102.629 135.681V131.523H104.32V138.699H102.68V137.424H102.605C102.443 137.826 102.177 138.154 101.806 138.41C101.439 138.665 100.986 138.793 100.447 138.793C99.9765 138.793 99.5607 138.688 99.1994 138.48C98.8412 138.268 98.5609 137.961 98.3585 137.559C98.156 137.154 98.0548 136.665 98.0548 136.092V131.523H99.746V135.831C99.746 136.286 99.8706 136.647 100.12 136.915C100.369 137.183 100.696 137.316 101.101 137.316C101.35 137.316 101.591 137.256 101.825 137.134C102.059 137.013 102.25 136.832 102.4 136.592C102.552 136.349 102.629 136.046 102.629 135.681ZM107.75 129.131V138.699H106.059V129.131H107.75ZM113.073 131.523V132.831H108.947V131.523H113.073ZM109.966 129.804H111.657V136.541C111.657 136.768 111.691 136.943 111.76 137.064C111.832 137.183 111.925 137.264 112.04 137.307C112.155 137.351 112.283 137.373 112.423 137.373C112.529 137.373 112.626 137.365 112.713 137.349C112.803 137.334 112.872 137.32 112.919 137.307L113.204 138.629C113.113 138.66 112.984 138.695 112.816 138.732C112.651 138.769 112.448 138.791 112.208 138.797C111.785 138.81 111.403 138.746 111.064 138.606C110.724 138.463 110.455 138.241 110.256 137.942C110.059 137.643 109.963 137.27 109.966 136.821V129.804Z" fill="white"/>
</g>
<defs>
<linearGradient id="paint0_linear_15_403" x1="46.3269" y1="118.682" x2="53.0363" y2="131.852" gradientUnits="userSpaceOnUse">
<stop offset="0.005" stop-color="#A20763"/>
<stop offset="1" stop-color="#C50878"/>
</linearGradient>
<clipPath id="clip0_15_403">
<rect width="90.2955" height="90.2955" fill="white" transform="translate(38.2317 35.8187)"/>
</clipPath>
<clipPath id="clip1_15_403">
<rect width="123.189" height="21.5283" fill="white" transform="translate(23.1118 123.699)"/>
</clipPath>
</defs>
</svg>
