<svg width="170" height="160" viewBox="0 0 170 160" fill="none" xmlns="http://www.w3.org/2000/svg">
<rect width="168.638" height="159.07" transform="translate(0.564819 0.604843)" fill="white"/>
<circle cx="83.2973" cy="82.6281" r="60.3146" fill="white" stroke="black" stroke-width="2.82173"/>
<path d="M50.6733 113.187C53.0502 111.878 53.9184 108.88 52.6092 106.503C51.3 104.126 48.3022 103.258 45.9253 104.567C43.5484 105.877 42.6801 108.874 43.9894 111.251C45.2986 113.628 48.2973 114.496 50.6733 113.187ZM46.8709 106.284C48.301 105.496 50.1048 106.019 50.8925 107.449C51.6797 108.878 51.1577 110.683 49.7277 111.47C48.2976 112.258 46.4942 111.734 45.707 110.305C44.9193 108.875 45.4417 107.071 46.8709 106.284Z" fill="black"/>
<path d="M35.5421 117.024L45.3973 111.595C45.8293 111.357 45.9681 110.779 45.7071 110.306C45.4461 109.832 44.8837 109.64 44.4517 109.878L34.5965 115.307C34.1645 115.545 34.0257 116.122 34.2867 116.596C34.5477 117.07 35.1093 117.262 35.5421 117.024Z" fill="black"/>
<path d="M50.3576 99.8244C52.7345 98.5152 53.6028 95.5174 52.2936 93.1405C50.9843 90.7636 47.9865 89.8953 45.6096 91.2046C43.2328 92.5138 42.3645 95.5116 43.6737 97.8885C44.9829 100.265 47.9816 101.133 50.3576 99.8244ZM46.5552 92.9213C47.9853 92.1336 49.7891 92.6561 50.5768 94.0861C51.364 95.5153 50.8421 97.32 49.412 98.1077C47.9819 98.8954 46.1785 98.3716 45.3913 96.9424C44.6036 95.5123 45.126 93.7086 46.5552 92.9213Z" fill="black"/>
<path d="M30.0391 106.517L44.7001 98.4418C45.3427 98.0878 45.6524 97.416 45.3914 96.9422C45.1304 96.4683 44.3971 96.3711 43.7545 96.725L29.0935 104.801C28.4509 105.155 28.1412 105.826 28.4021 106.3C28.6631 106.774 29.3953 106.872 30.0391 106.517Z" fill="black"/>
<path d="M39.5473 91.8429C41.9242 90.5337 42.7925 87.5359 41.4833 85.159C40.174 82.7821 37.1762 81.9138 34.7993 83.2231C32.4225 84.5323 31.5542 87.5301 32.8634 89.907C34.1726 92.2838 37.1713 93.1517 39.5473 91.8429ZM35.7449 84.9398C37.175 84.1521 38.9788 84.6746 39.7665 86.1046C40.5537 87.5338 40.0318 89.3385 38.6017 90.1262C37.1716 90.9139 35.3682 90.3901 34.581 88.9609C33.7933 87.5308 34.3157 85.7271 35.7449 84.9398Z" fill="black"/>
<path d="M25.605 95.0239L34.3593 90.2019C34.743 89.9905 34.8426 89.4345 34.5816 88.9606C34.3206 88.4868 33.7974 88.2738 33.4137 88.4851L24.6594 93.3071C24.2757 93.5185 24.1761 94.0746 24.4371 94.5484C24.6981 95.0222 25.2206 95.2356 25.605 95.0239Z" fill="black"/>
<path fill-rule="evenodd" clip-rule="evenodd" d="M60.5839 92.0446C60.5854 92.0235 60.5862 92.0023 60.5862 91.9808V44.6258C60.5862 42.8762 62.0093 41.4531 63.7588 41.4531H107.545C109.294 41.4531 110.717 42.8762 110.717 44.6258V58.883C110.717 59.3682 111.111 59.7604 111.595 59.7604C112.079 59.7604 112.472 59.3682 112.472 58.883V44.6258C112.472 41.9085 110.262 39.6983 107.545 39.6983H63.7588C61.0415 39.6983 58.8313 41.9093 58.8313 44.6258V91.9808C58.8313 92.0395 58.8371 92.0968 58.848 92.1523C59.04 94.6709 61.0224 96.5615 63.6037 96.5615C64.9788 96.5615 64.9788 94.8066 63.6037 94.8066C61.9143 94.8066 60.6676 93.6962 60.5839 92.0446Z" fill="black"/>
<path d="M92.1371 57.4367H68.0987C67.5528 57.4367 67.1097 57.1724 67.1097 56.8454C67.1097 56.5185 67.5528 56.2542 68.0987 56.2542H92.1371C92.684 56.2542 93.1261 56.5185 93.1261 56.8454C93.1261 57.1724 92.683 57.4367 92.1371 57.4367Z" fill="black" stroke="black" stroke-width="0.591281"/>
<path d="M103.513 50.3414H68.5482C67.7542 50.3414 67.1097 50.0771 67.1097 49.7501C67.1097 49.4232 67.7542 49.1589 68.5482 49.1589H103.513C104.309 49.1589 104.952 49.4232 104.952 49.7501C104.952 50.0771 104.307 50.3414 103.513 50.3414Z" fill="black" stroke="black" stroke-width="0.591281"/>
<path d="M89.4794 64.4696H67.9937C67.5057 64.4696 67.1097 64.2334 67.1097 63.9411C67.1097 63.6489 67.5057 63.4126 67.9937 63.4126H89.4794C89.9682 63.4126 90.3633 63.6489 90.3633 63.9411C90.3633 64.2334 89.9673 64.4696 89.4794 64.4696Z" fill="#C50878" stroke="#C50878" stroke-width="0.52849"/>
<path d="M83.3895 71.5061H67.753C67.3979 71.5061 67.1097 71.296 67.1097 71.036C67.1097 70.776 67.3979 70.5659 67.753 70.5659H83.3895C83.7452 70.5659 84.0328 70.776 84.0328 71.036C84.0328 71.296 83.7446 71.5061 83.3895 71.5061Z" fill="black" stroke="black" stroke-width="0.590851"/>
<path d="M57.5254 66.6496L55.0783 58.3667C54.9599 58.0571 54.8037 57.7191 54.6254 57.396C54.4477 57.0725 54.2454 56.7589 54.0243 56.4648C53.8036 56.1712 53.5589 55.8891 53.2973 55.6275C53.0361 55.3669 52.7545 55.1222 52.4599 54.901C52.1668 54.6808 51.8533 54.4781 51.5287 54.2993C51.2057 54.1216 50.8672 53.9653 50.5226 53.835L42.2756 51.4004L50.5586 48.9533C50.8672 48.8355 51.2057 48.6797 51.5297 48.5009C51.8543 48.3222 52.1673 48.1195 52.4604 47.8993C52.755 47.6781 53.0366 47.4334 53.2978 47.1728C53.5594 46.9112 53.8036 46.6295 54.0243 46.3355C54.2459 46.0409 54.4482 45.7273 54.6259 45.4043C54.8042 45.0812 54.9599 44.7427 55.0903 44.3982L57.5254 36.1507L59.9725 44.4336C60.0918 44.7442 60.2476 45.0827 60.4253 45.4048C60.6026 45.7273 60.8053 46.0409 61.027 46.336C61.2472 46.6295 61.4918 46.9117 61.7535 47.1733C62.0146 47.4339 62.2962 47.6786 62.5908 47.8998C62.8839 48.12 63.1975 48.3227 63.522 48.5014C63.8461 48.6797 64.1841 48.8355 64.5276 48.9653L72.7751 51.4009L64.4927 53.8475C64.1836 53.9658 63.8451 54.1221 63.5215 54.3003C63.197 54.4791 62.8839 54.6818 62.5903 54.902C62.2957 55.1232 62.0141 55.3679 61.753 55.6285C61.4913 55.8901 61.2472 56.1717 61.0265 56.4653C60.8043 56.7609 60.6021 57.074 60.4248 57.3965C60.2506 57.7131 60.0963 58.0461 59.9665 58.3861L57.5254 66.6496Z" fill="#EFDB5D"/>
<path d="M43.4583 73.9934L42.0746 69.3096C42.0192 69.1675 41.9424 69.0008 41.8553 68.8425C41.7671 68.6826 41.6677 68.5282 41.5589 68.3838C41.45 68.2385 41.3293 68.1 41.2011 67.9718C41.0728 67.8435 40.9347 67.7232 40.7894 67.6139C40.6442 67.5047 40.4902 67.4054 40.3311 67.3175C40.172 67.2296 40.005 67.1528 39.8356 67.0887L35.1802 65.7145L39.8637 64.3308C40.005 64.2762 40.172 64.199 40.3315 64.1115C40.4902 64.0241 40.6442 63.9247 40.789 63.8155C40.9347 63.7062 41.0728 63.5859 41.2007 63.4581C41.3293 63.3298 41.4496 63.1913 41.5589 63.0456C41.6673 62.9012 41.7671 62.7468 41.8553 62.5873C41.9428 62.429 42.0196 62.2624 42.0841 62.0922L43.4583 57.4368L44.8416 62.1207C44.897 62.2628 44.9738 62.4294 45.0609 62.5877C45.1492 62.7476 45.2485 62.902 45.3573 63.0464C45.4662 63.1917 45.5869 63.3302 45.7151 63.4585C45.8434 63.5867 45.9815 63.707 46.1268 63.8163C46.272 63.9255 46.426 64.0248 46.5851 64.1127C46.7442 64.2002 46.9112 64.2774 47.0806 64.3415L51.736 65.7149L47.0525 67.0986C46.9112 67.1532 46.7442 67.2304 46.5847 67.3179C46.426 67.4054 46.272 67.5047 46.1272 67.6139C45.9815 67.7232 45.8434 67.8435 45.7155 67.9714C45.5869 68.0996 45.4666 68.2381 45.3573 68.3838C45.2489 68.5282 45.1492 68.6826 45.0609 68.8421C44.9758 68.9965 44.9006 69.1584 44.8373 69.3238L43.4583 73.9934Z" fill="#EFDB5D"/>
<mask id="path-15-outside-1_15_581" maskUnits="userSpaceOnUse" x="63.3539" y="60.9245" width="73" height="60" fill="black">
<rect fill="white" x="63.3539" y="60.9245" width="73" height="60"/>
<path d="M134.997 87.7062H133.038L126.365 66.7197C127.272 66.0292 127.677 64.8116 127.268 63.6853C127.023 63.0138 126.533 62.478 125.885 62.1764C125.238 61.8748 124.512 61.843 123.841 62.0867C123.169 62.3312 122.633 62.8217 122.331 63.4702C122.145 63.8686 122.074 64.2965 122.095 64.7235L104.755 71.0131C103.835 69.3367 102.053 68.1969 100.009 68.1969C97.0265 68.1969 94.6001 70.6241 94.6001 73.6062C94.6001 73.9705 94.6374 74.3253 94.7064 74.6698L77.3815 80.9967C77.1227 80.657 76.7933 80.3744 76.3957 80.1887C75.7488 79.8878 75.0217 79.8545 74.3502 80.0998C72.9643 80.6038 72.2476 82.1421 72.7516 83.5279C72.9413 84.0486 73.2795 84.4725 73.6986 84.7749L67.1058 105.506H65.1476C64.7095 105.506 64.3539 105.861 64.3539 106.299V108.986C64.3539 111.091 66.0668 112.805 68.1726 112.805H82.3559C84.4608 112.805 86.1745 111.092 86.1745 108.986V106.299C86.1745 105.861 85.8189 105.506 85.3808 105.506H83.4226L76.8291 84.7693C77.1934 84.5058 77.4934 84.1621 77.6887 83.7438C77.8744 83.3446 77.9451 82.9168 77.9244 82.4889L95.2446 76.1636C95.7295 77.0637 96.463 77.809 97.3511 78.3123V105.561C92.6943 105.862 88.978 109.633 88.7621 114.312H86.3761C85.938 114.312 85.5824 114.667 85.5824 115.106V119.437C85.5824 119.876 85.938 120.23 86.3761 120.23H113.644C114.083 120.23 114.438 119.876 114.438 119.437V115.106C114.438 114.667 114.083 114.312 113.644 114.312H111.257C111.042 109.632 107.325 105.861 102.668 105.561V78.3123C104.309 77.382 105.42 75.6223 105.42 73.6054C105.42 73.2268 105.381 72.8577 105.306 72.5005L122.638 66.2149C122.833 66.4721 123.072 66.6904 123.351 66.8626L116.722 87.7062H114.764C114.325 87.7062 113.97 88.0618 113.97 88.4999V91.1867C113.97 93.2917 115.683 95.0046 117.789 95.0046H131.972C134.077 95.0046 135.791 93.2917 135.791 91.1867V88.4999C135.79 88.0618 135.435 87.7062 134.997 87.7062ZM74.8923 81.592C75.0138 81.5476 75.14 81.5261 75.2646 81.5261C75.4218 81.5261 75.5773 81.5603 75.7242 81.6285C75.9877 81.7508 76.1869 81.969 76.2861 82.2413V82.2421C76.3846 82.5143 76.3727 82.8096 76.2496 83.0723C76.1274 83.3358 75.9091 83.5351 75.6369 83.6343C75.0749 83.8415 74.4478 83.5478 74.2431 82.985C74.0375 82.4223 74.3296 81.7968 74.8923 81.592ZM84.5871 108.985C84.5871 110.216 83.5861 111.217 82.3559 111.217H68.1726C66.9423 111.217 65.9414 110.216 65.9414 108.985V107.092H84.5871V108.985ZM68.7718 105.506L75.2027 85.2837C75.2249 85.2845 75.2463 85.2884 75.2678 85.2884C75.2868 85.2884 75.3067 85.2837 75.3265 85.2837L81.7566 105.506H68.7718ZM112.85 118.644H87.1699V115.901H89.5344H110.486H112.85V118.644ZM109.68 114.313H90.3393C90.5615 110.309 93.8889 107.119 97.9472 107.119H98.1449H101.874H102.072C106.131 107.119 109.457 110.309 109.68 114.313ZM101.081 105.532H98.9394V78.9092C99.2855 78.979 99.6435 79.0163 100.01 79.0163C100.377 79.0163 100.735 78.979 101.081 78.9092V105.532ZM100.01 77.4296C97.9028 77.4296 96.1883 75.7144 96.1883 73.607C96.1883 71.4996 97.9028 69.7852 100.01 69.7852C102.118 69.7852 103.833 71.4996 103.833 73.607C103.833 75.7144 102.118 77.4296 100.01 77.4296ZM123.77 64.1401C123.893 63.8774 124.111 63.6773 124.383 63.5781C124.505 63.5337 124.631 63.5122 124.757 63.5122C124.913 63.5122 125.069 63.5464 125.215 63.6146C125.478 63.7377 125.678 63.9551 125.777 64.2274C125.982 64.791 125.691 65.4164 125.128 65.6212C124.855 65.7212 124.56 65.7077 124.296 65.5855C124.034 65.4633 123.834 65.2458 123.735 64.9727C123.735 64.9719 123.734 64.9719 123.734 64.9711C123.635 64.6989 123.647 64.4036 123.77 64.1401ZM124.88 67.2904L131.372 87.7062H118.388L124.88 67.2904ZM134.203 91.1867C134.203 92.417 133.202 93.4179 131.972 93.4179H117.789C116.559 93.4179 115.558 92.417 115.558 91.1867V89.2936H117.3C117.301 89.2936 117.302 89.2936 117.303 89.2936C117.303 89.2936 117.304 89.2936 117.305 89.2936H132.456C132.457 89.2936 132.457 89.2936 132.458 89.2936C132.459 89.2936 132.46 89.2936 132.461 89.2936H134.203V91.1867Z"/>
</mask>
<path d="M134.997 87.7062H133.038L126.365 66.7197C127.272 66.0292 127.677 64.8116 127.268 63.6853C127.023 63.0138 126.533 62.478 125.885 62.1764C125.238 61.8748 124.512 61.843 123.841 62.0867C123.169 62.3312 122.633 62.8217 122.331 63.4702C122.145 63.8686 122.074 64.2965 122.095 64.7235L104.755 71.0131C103.835 69.3367 102.053 68.1969 100.009 68.1969C97.0265 68.1969 94.6001 70.6241 94.6001 73.6062C94.6001 73.9705 94.6374 74.3253 94.7064 74.6698L77.3815 80.9967C77.1227 80.657 76.7933 80.3744 76.3957 80.1887C75.7488 79.8878 75.0217 79.8545 74.3502 80.0998C72.9643 80.6038 72.2476 82.1421 72.7516 83.5279C72.9413 84.0486 73.2795 84.4725 73.6986 84.7749L67.1058 105.506H65.1476C64.7095 105.506 64.3539 105.861 64.3539 106.299V108.986C64.3539 111.091 66.0668 112.805 68.1726 112.805H82.3559C84.4608 112.805 86.1745 111.092 86.1745 108.986V106.299C86.1745 105.861 85.8189 105.506 85.3808 105.506H83.4226L76.8291 84.7693C77.1934 84.5058 77.4934 84.1621 77.6887 83.7438C77.8744 83.3446 77.9451 82.9168 77.9244 82.4889L95.2446 76.1636C95.7295 77.0637 96.463 77.809 97.3511 78.3123V105.561C92.6943 105.862 88.978 109.633 88.7621 114.312H86.3761C85.938 114.312 85.5824 114.667 85.5824 115.106V119.437C85.5824 119.876 85.938 120.23 86.3761 120.23H113.644C114.083 120.23 114.438 119.876 114.438 119.437V115.106C114.438 114.667 114.083 114.312 113.644 114.312H111.257C111.042 109.632 107.325 105.861 102.668 105.561V78.3123C104.309 77.382 105.42 75.6223 105.42 73.6054C105.42 73.2268 105.381 72.8577 105.306 72.5005L122.638 66.2149C122.833 66.4721 123.072 66.6904 123.351 66.8626L116.722 87.7062H114.764C114.325 87.7062 113.97 88.0618 113.97 88.4999V91.1867C113.97 93.2917 115.683 95.0046 117.789 95.0046H131.972C134.077 95.0046 135.791 93.2917 135.791 91.1867V88.4999C135.79 88.0618 135.435 87.7062 134.997 87.7062ZM74.8923 81.592C75.0138 81.5476 75.14 81.5261 75.2646 81.5261C75.4218 81.5261 75.5773 81.5603 75.7242 81.6285C75.9877 81.7508 76.1869 81.969 76.2861 82.2413V82.2421C76.3846 82.5143 76.3727 82.8096 76.2496 83.0723C76.1274 83.3358 75.9091 83.5351 75.6369 83.6343C75.0749 83.8415 74.4478 83.5478 74.2431 82.985C74.0375 82.4223 74.3296 81.7968 74.8923 81.592ZM84.5871 108.985C84.5871 110.216 83.5861 111.217 82.3559 111.217H68.1726C66.9423 111.217 65.9414 110.216 65.9414 108.985V107.092H84.5871V108.985ZM68.7718 105.506L75.2027 85.2837C75.2249 85.2845 75.2463 85.2884 75.2678 85.2884C75.2868 85.2884 75.3067 85.2837 75.3265 85.2837L81.7566 105.506H68.7718ZM112.85 118.644H87.1699V115.901H89.5344H110.486H112.85V118.644ZM109.68 114.313H90.3393C90.5615 110.309 93.8889 107.119 97.9472 107.119H98.1449H101.874H102.072C106.131 107.119 109.457 110.309 109.68 114.313ZM101.081 105.532H98.9394V78.9092C99.2855 78.979 99.6435 79.0163 100.01 79.0163C100.377 79.0163 100.735 78.979 101.081 78.9092V105.532ZM100.01 77.4296C97.9028 77.4296 96.1883 75.7144 96.1883 73.607C96.1883 71.4996 97.9028 69.7852 100.01 69.7852C102.118 69.7852 103.833 71.4996 103.833 73.607C103.833 75.7144 102.118 77.4296 100.01 77.4296ZM123.77 64.1401C123.893 63.8774 124.111 63.6773 124.383 63.5781C124.505 63.5337 124.631 63.5122 124.757 63.5122C124.913 63.5122 125.069 63.5464 125.215 63.6146C125.478 63.7377 125.678 63.9551 125.777 64.2274C125.982 64.791 125.691 65.4164 125.128 65.6212C124.855 65.7212 124.56 65.7077 124.296 65.5855C124.034 65.4633 123.834 65.2458 123.735 64.9727C123.735 64.9719 123.734 64.9719 123.734 64.9711C123.635 64.6989 123.647 64.4036 123.77 64.1401ZM124.88 67.2904L131.372 87.7062H118.388L124.88 67.2904ZM134.203 91.1867C134.203 92.417 133.202 93.4179 131.972 93.4179H117.789C116.559 93.4179 115.558 92.417 115.558 91.1867V89.2936H117.3C117.301 89.2936 117.302 89.2936 117.303 89.2936C117.303 89.2936 117.304 89.2936 117.305 89.2936H132.456C132.457 89.2936 132.457 89.2936 132.458 89.2936C132.459 89.2936 132.46 89.2936 132.461 89.2936H134.203V91.1867Z" fill="black"/>
<path d="M134.997 87.7062H133.038L126.365 66.7197C127.272 66.0292 127.677 64.8116 127.268 63.6853C127.023 63.0138 126.533 62.478 125.885 62.1764C125.238 61.8748 124.512 61.843 123.841 62.0867C123.169 62.3312 122.633 62.8217 122.331 63.4702C122.145 63.8686 122.074 64.2965 122.095 64.7235L104.755 71.0131C103.835 69.3367 102.053 68.1969 100.009 68.1969C97.0265 68.1969 94.6001 70.6241 94.6001 73.6062C94.6001 73.9705 94.6374 74.3253 94.7064 74.6698L77.3815 80.9967C77.1227 80.657 76.7933 80.3744 76.3957 80.1887C75.7488 79.8878 75.0217 79.8545 74.3502 80.0998C72.9643 80.6038 72.2476 82.1421 72.7516 83.5279C72.9413 84.0486 73.2795 84.4725 73.6986 84.7749L67.1058 105.506H65.1476C64.7095 105.506 64.3539 105.861 64.3539 106.299V108.986C64.3539 111.091 66.0668 112.805 68.1726 112.805H82.3559C84.4608 112.805 86.1745 111.092 86.1745 108.986V106.299C86.1745 105.861 85.8189 105.506 85.3808 105.506H83.4226L76.8291 84.7693C77.1934 84.5058 77.4934 84.1621 77.6887 83.7438C77.8744 83.3446 77.9451 82.9168 77.9244 82.4889L95.2446 76.1636C95.7295 77.0637 96.463 77.809 97.3511 78.3123V105.561C92.6943 105.862 88.978 109.633 88.7621 114.312H86.3761C85.938 114.312 85.5824 114.667 85.5824 115.106V119.437C85.5824 119.876 85.938 120.23 86.3761 120.23H113.644C114.083 120.23 114.438 119.876 114.438 119.437V115.106C114.438 114.667 114.083 114.312 113.644 114.312H111.257C111.042 109.632 107.325 105.861 102.668 105.561V78.3123C104.309 77.382 105.42 75.6223 105.42 73.6054C105.42 73.2268 105.381 72.8577 105.306 72.5005L122.638 66.2149C122.833 66.4721 123.072 66.6904 123.351 66.8626L116.722 87.7062H114.764C114.325 87.7062 113.97 88.0618 113.97 88.4999V91.1867C113.97 93.2917 115.683 95.0046 117.789 95.0046H131.972C134.077 95.0046 135.791 93.2917 135.791 91.1867V88.4999C135.79 88.0618 135.435 87.7062 134.997 87.7062ZM74.8923 81.592C75.0138 81.5476 75.14 81.5261 75.2646 81.5261C75.4218 81.5261 75.5773 81.5603 75.7242 81.6285C75.9877 81.7508 76.1869 81.969 76.2861 82.2413V82.2421C76.3846 82.5143 76.3727 82.8096 76.2496 83.0723C76.1274 83.3358 75.9091 83.5351 75.6369 83.6343C75.0749 83.8415 74.4478 83.5478 74.2431 82.985C74.0375 82.4223 74.3296 81.7968 74.8923 81.592ZM84.5871 108.985C84.5871 110.216 83.5861 111.217 82.3559 111.217H68.1726C66.9423 111.217 65.9414 110.216 65.9414 108.985V107.092H84.5871V108.985ZM68.7718 105.506L75.2027 85.2837C75.2249 85.2845 75.2463 85.2884 75.2678 85.2884C75.2868 85.2884 75.3067 85.2837 75.3265 85.2837L81.7566 105.506H68.7718ZM112.85 118.644H87.1699V115.901H89.5344H110.486H112.85V118.644ZM109.68 114.313H90.3393C90.5615 110.309 93.8889 107.119 97.9472 107.119H98.1449H101.874H102.072C106.131 107.119 109.457 110.309 109.68 114.313ZM101.081 105.532H98.9394V78.9092C99.2855 78.979 99.6435 79.0163 100.01 79.0163C100.377 79.0163 100.735 78.979 101.081 78.9092V105.532ZM100.01 77.4296C97.9028 77.4296 96.1883 75.7144 96.1883 73.607C96.1883 71.4996 97.9028 69.7852 100.01 69.7852C102.118 69.7852 103.833 71.4996 103.833 73.607C103.833 75.7144 102.118 77.4296 100.01 77.4296ZM123.77 64.1401C123.893 63.8774 124.111 63.6773 124.383 63.5781C124.505 63.5337 124.631 63.5122 124.757 63.5122C124.913 63.5122 125.069 63.5464 125.215 63.6146C125.478 63.7377 125.678 63.9551 125.777 64.2274C125.982 64.791 125.691 65.4164 125.128 65.6212C124.855 65.7212 124.56 65.7077 124.296 65.5855C124.034 65.4633 123.834 65.2458 123.735 64.9727C123.735 64.9719 123.734 64.9719 123.734 64.9711C123.635 64.6989 123.647 64.4036 123.77 64.1401ZM124.88 67.2904L131.372 87.7062H118.388L124.88 67.2904ZM134.203 91.1867C134.203 92.417 133.202 93.4179 131.972 93.4179H117.789C116.559 93.4179 115.558 92.417 115.558 91.1867V89.2936H117.3C117.301 89.2936 117.302 89.2936 117.303 89.2936C117.303 89.2936 117.304 89.2936 117.305 89.2936H132.456C132.457 89.2936 132.457 89.2936 132.458 89.2936C132.459 89.2936 132.46 89.2936 132.461 89.2936H134.203V91.1867Z" stroke="black" stroke-width="0.904364" mask="url(#path-15-outside-1_15_581)"/>
<g clip-path="url(#clip0_15_581)">
<path d="M18.4219 123.284H154.768V145.323H22.0099L18.4219 123.284Z" fill="black"/>
<path d="M27.9687 147.721L20.814 145.622L19.319 120.398H37.5582L27.9687 147.721Z" fill="url(#paint0_linear_15_581)"/>
<path d="M72.8619 139.76V130.192H74.5951V138.307H78.8092V139.76H72.8619ZM83.4158 139.9C82.6963 139.9 82.0749 139.75 81.5517 139.451C81.0315 139.149 80.6313 138.723 80.351 138.171C80.0707 137.617 79.9305 136.964 79.9305 136.214C79.9305 135.476 80.0707 134.828 80.351 134.27C80.6344 133.71 81.03 133.274 81.5376 132.962C82.0453 132.648 82.6418 132.49 83.327 132.49C83.7693 132.49 84.1866 132.562 84.5791 132.705C84.9746 132.845 85.3235 133.063 85.6256 133.359C85.9308 133.655 86.1706 134.032 86.3451 134.49C86.5195 134.945 86.6067 135.487 86.6067 136.116V136.634H80.7247V135.494H84.9855C84.9824 135.17 84.9123 134.882 84.7753 134.63C84.6382 134.375 84.4467 134.174 84.2006 134.027C83.9577 133.881 83.6743 133.808 83.3503 133.808C83.0046 133.808 82.7009 133.892 82.4393 134.06C82.1777 134.225 81.9737 134.443 81.8273 134.714C81.684 134.982 81.6108 135.276 81.6077 135.597V136.592C81.6077 137.01 81.684 137.368 81.8366 137.667C81.9893 137.963 82.2026 138.19 82.4767 138.349C82.7508 138.505 83.0716 138.582 83.4391 138.582C83.6852 138.582 83.9079 138.548 84.1072 138.48C84.3065 138.408 84.4794 138.304 84.6258 138.167C84.7722 138.03 84.8827 137.86 84.9575 137.657L86.5366 137.835C86.4369 138.252 86.2469 138.617 85.9666 138.928C85.6894 139.237 85.3344 139.476 84.9014 139.648C84.4685 139.816 83.9733 139.9 83.4158 139.9ZM89.2662 132.584L90.7145 135.233L92.1861 132.584H93.9755L91.8124 136.172L94.0129 139.76H92.2329L90.7145 137.176L89.2101 139.76H87.4161L89.6026 136.172L87.4722 132.584H89.2662Z" fill="white"/>
</g>
<defs>
<linearGradient id="paint0_linear_15_581" x1="45.1479" y1="118.777" x2="51.8574" y2="131.947" gradientUnits="userSpaceOnUse">
<stop offset="0.005" stop-color="#A20763"/>
<stop offset="1" stop-color="#C50878"/>
</linearGradient>
<clipPath id="clip0_15_581">
<rect width="123.189" height="21.5283" fill="white" transform="translate(21.933 123.794)"/>
</clipPath>
</defs>
</svg>
