<?xml version="1.0" encoding="UTF-8"?>
<svg id="Layer_1" data-name="Layer 1" xmlns="http://www.w3.org/2000/svg" viewBox="0 0 445.66 447.22">
  <defs>
    <style>
      .cls-1 {
        fill: none;
        stroke: #557ef4;
        stroke-linecap: round;
        stroke-linejoin: round;
        stroke-width: 10px;
      }
    </style>
  </defs>
  <path class="cls-1" d="m221.41,296.56c-39.45,0-71.44-31.98-71.44-71.44s31.98-71.44,71.44-71.44"/>
  <path class="cls-1" d="m223.18,8.78h-28.27c-3.74,0-6.78,3.04-6.78,6.78v39.9c0,3.19-2.23,5.89-5.33,6.62-17.77,4.19-34.44,11.22-49.52,20.57-2.64,1.63-6.03,1.31-8.22-.89l-28.34-28.34c-2.65-2.65-6.94-2.65-9.59,0l-37.48,37.48c-2.65,2.65-2.65,6.94,0,9.59l28.36,28.36c2.19,2.19,2.52,5.59.89,8.22-9.34,15.08-16.35,31.74-20.54,49.5-.73,3.1-3.44,5.33-6.62,5.33H11.78c-3.74,0-6.78,3.04-6.78,6.78v53.01c0,3.74,3.04,6.78,6.78,6.78h39.98c3.19,0,5.89,2.23,6.62,5.33,4.2,17.75,11.22,34.4,20.57,49.46,1.63,2.63,1.3,6.01-.88,8.2l-28.42,28.42c-2.65,2.65-2.65,6.94,0,9.59l37.48,37.48c2.65,2.65,6.94,2.65,9.59,0l28.44-28.44c2.19-2.19,5.57-2.51,8.2-.89,15.06,9.33,31.71,16.34,49.44,20.53,3.1.73,5.33,3.44,5.33,6.62v40.03c0,3.74,3.04,6.78,6.78,6.78h28.27"/>
  <circle class="cls-1" cx="414.24" cy="224.04" r="26.42" transform="translate(-37.09 358.53) rotate(-45)"/>
  <circle class="cls-1" cx="342.3" cy="164" r="26.42" transform="translate(-15.71 290.08) rotate(-45)"/>
  <circle class="cls-1" cx="361.4" cy="31.42" r="26.42" transform="translate(15.49 140.69) rotate(-22.5)"/>
  <line class="cls-1" x1="251.98" y1="225.65" x2="382.57" y2="225.65"/>
  <line class="cls-1" x1="251.98" y1="164" x2="315.88" y2="164"/>
  <polyline class="cls-1" points="251.98 105.62 315.88 105.62 346.05 53.81"/>
  <circle class="cls-1" cx="342.3" cy="283.22" r="26.42"/>
  <circle class="cls-1" cx="361.4" cy="415.8" r="26.42" transform="translate(-61.94 63.26) rotate(-9.22)"/>
  <line class="cls-1" x1="251.98" y1="283.22" x2="315.88" y2="283.22"/>
  <polyline class="cls-1" points="251.98 341.59 315.88 341.59 346.05 393.41"/>
</svg>