<svg width="229" height="128" viewBox="0 0 229 128" fill="none" xmlns="http://www.w3.org/2000/svg">
<rect width="229" height="128" fill="white"/>
<circle cx="115.177" cy="64" r="52.8878" fill="white" stroke="black" stroke-width="2.47654"/>
<path d="M86.6047 92.4081C88.6992 91.2543 89.4644 88.6125 88.3107 86.5179C87.157 84.4234 84.5151 83.6582 82.4205 84.8119C80.326 85.9656 79.5608 88.6075 80.7145 90.7021C81.8683 92.7966 84.5108 93.5614 86.6047 92.4081ZM83.2539 86.3248C84.5141 85.6306 86.1036 86.091 86.7978 87.3513C87.4916 88.6107 87.0316 90.201 85.7713 90.8952C84.5111 91.5894 82.9219 91.1278 82.2282 89.8683C81.534 88.6081 81.9944 87.0185 83.2539 86.3248Z" fill="black"/>
<path d="M73.2703 95.7886L81.9552 91.0048C82.3358 90.7951 82.4581 90.2861 82.2281 89.8685C81.9981 89.4509 81.5025 89.2822 81.1219 89.4919L72.437 94.2757C72.0563 94.4854 71.9341 94.9944 72.1641 95.412C72.3941 95.8295 72.889 95.9986 73.2703 95.7886Z" fill="black"/>
<path d="M86.3265 80.6321C88.4211 79.4783 89.1863 76.8365 88.0326 74.7419C86.8788 72.6474 84.237 71.8822 82.1424 73.0359C80.0478 74.1896 79.2826 76.8315 80.4364 78.9261C81.5901 81.0206 84.2327 81.7854 86.3265 80.6321ZM82.9757 74.5488C84.236 73.8546 85.8255 74.315 86.5197 75.5753C87.2134 76.8347 86.7534 78.425 85.4932 79.1192C84.233 79.8134 82.6438 79.3518 81.95 78.0923C81.2559 76.8321 81.7163 75.2425 82.9757 74.5488Z" fill="black"/>
<path d="M68.4209 86.53L81.3408 79.4135C81.9071 79.1016 82.18 78.5096 81.95 78.092C81.72 77.6745 81.0737 77.5887 80.5075 77.9006L67.5876 85.0172C67.0213 85.3291 66.7484 85.9211 66.9784 86.3387C67.2084 86.7562 67.8536 86.8425 68.4209 86.53Z" fill="black"/>
<path d="M76.8003 73.5986C78.8949 72.4449 79.66 69.8031 78.5063 67.7085C77.3526 65.6139 74.7107 64.8487 72.6162 66.0025C70.5216 67.1562 69.7564 69.798 70.9101 71.8926C72.0639 73.9872 74.7065 74.752 76.8003 73.5986ZM73.4495 67.5153C74.7097 66.8212 76.2993 67.2816 76.9934 68.5418C77.6872 69.8013 77.2272 71.3916 75.967 72.0858C74.7067 72.7799 73.1175 72.3183 72.4238 71.0589C71.7296 69.7986 72.19 68.2091 73.4495 67.5153Z" fill="black"/>
<path d="M64.5133 76.4016L72.2279 72.1523C72.566 71.966 72.6538 71.476 72.4238 71.0584C72.1938 70.6409 71.7327 70.4532 71.3946 70.6394L63.68 74.8888C63.3419 75.075 63.2541 75.5651 63.4841 75.9826C63.7141 76.4002 64.1746 76.5882 64.5133 76.4016Z" fill="black"/>
<path fill-rule="evenodd" clip-rule="evenodd" d="M93.7574 74.3041C93.7587 74.2853 93.7594 74.2663 93.7594 74.2471V32.516C93.7594 30.9742 95.0136 29.7201 96.5553 29.7201H135.141C136.683 29.7201 137.937 30.9742 137.937 32.516V45.08C137.937 45.5076 138.284 45.8532 138.71 45.8532C139.137 45.8532 139.484 45.5076 139.484 45.08V32.516C139.484 30.1214 137.536 28.1737 135.141 28.1737H96.5553C94.1607 28.1737 92.213 30.1222 92.213 32.516V74.2471C92.213 74.2986 92.2181 74.3489 92.2276 74.3976C92.3966 76.6173 94.1436 78.2836 96.4185 78.2836C97.6303 78.2836 97.6303 76.7372 96.4185 76.7372C94.9301 76.7372 93.8316 75.759 93.7574 74.3041Z" fill="black"/>
<path d="M121.563 43.8057H100.379C99.8984 43.8057 99.5079 43.5728 99.5079 43.2846C99.5079 42.9965 99.8984 42.7635 100.379 42.7635H121.563C122.045 42.7635 122.435 42.9965 122.435 43.2846C122.435 43.5728 122.044 43.8057 121.563 43.8057Z" fill="black" stroke="black" stroke-width="0.52106"/>
<path d="M131.588 37.5527H100.776C100.076 37.5527 99.5079 37.3198 99.5079 37.0317C99.5079 36.7435 100.076 36.5106 100.776 36.5106H131.588C132.289 36.5106 132.856 36.7435 132.856 37.0317C132.856 37.3198 132.288 37.5527 131.588 37.5527Z" fill="black" stroke="black" stroke-width="0.52106"/>
<path d="M119.221 50.0029H100.287C99.8569 50.0029 99.5079 49.7947 99.5079 49.5371C99.5079 49.2796 99.8569 49.0714 100.287 49.0714H119.221C119.652 49.0714 120 49.2796 120 49.5371C120 49.7947 119.651 50.0029 119.221 50.0029Z" fill="#C50878" stroke="#C50878" stroke-width="0.465727"/>
<path d="M113.854 56.2041H100.075C99.7619 56.2041 99.5079 56.019 99.5079 55.7899C99.5079 55.5608 99.7619 55.3756 100.075 55.3756H113.854C114.168 55.3756 114.421 55.5608 114.421 55.7899C114.421 56.019 114.167 56.2041 113.854 56.2041Z" fill="black" stroke="black" stroke-width="0.520681"/>
<path d="M91.0621 51.9243L88.9056 44.625C88.8013 44.3522 88.6636 44.0543 88.5065 43.7696C88.3499 43.4845 88.1717 43.2082 87.9768 42.949C87.7823 42.6903 87.5667 42.4417 87.3361 42.2111C87.106 41.9814 86.8578 41.7658 86.5982 41.5709C86.3399 41.3769 86.0636 41.1982 85.7776 41.0407C85.4929 40.8841 85.1946 40.7463 84.891 40.6315L77.6234 38.486L84.9227 36.3296C85.1946 36.2257 85.4929 36.0884 85.7785 35.9309C86.0645 35.7734 86.3404 35.5948 86.5987 35.4007C86.8583 35.2058 87.1064 34.9902 87.3366 34.7605C87.5671 34.5299 87.7823 34.2818 87.9768 34.0226C88.1721 33.763 88.3503 33.4867 88.507 33.202C88.6641 32.9173 88.8013 32.619 88.9162 32.3154L91.0621 25.0474L93.2186 32.3466C93.3237 32.6203 93.461 32.9186 93.6176 33.2024C93.7738 33.4867 93.9525 33.763 94.1479 34.0231C94.3419 34.2818 94.5575 34.5304 94.7881 34.7609C95.0182 34.9906 95.2663 35.2062 95.526 35.4012C95.7842 35.5952 96.0606 35.7738 96.3466 35.9314C96.6321 36.0884 96.93 36.2257 97.2327 36.3401L104.501 38.4865L97.2019 40.6425C96.9296 40.7468 96.6312 40.8845 96.3461 41.0416C96.0601 41.1991 95.7842 41.3778 95.5255 41.5718C95.2659 41.7667 95.0177 41.9823 94.7876 42.212C94.5571 42.4426 94.3419 42.6907 94.1474 42.9495C93.9516 43.2099 93.7734 43.4858 93.6172 43.7701C93.4636 44.049 93.3277 44.3425 93.2133 44.6422L91.0621 51.9243Z" fill="#EFDB5D"/>
<path d="M78.6657 58.3959L77.4464 54.2683C77.3975 54.1431 77.3299 53.9962 77.2531 53.8567C77.1753 53.7158 77.0878 53.5798 76.9919 53.4525C76.896 53.3245 76.7896 53.2024 76.6766 53.0894C76.5636 52.9764 76.4418 52.8703 76.3138 52.7741C76.1858 52.6778 76.0501 52.5903 75.9099 52.5128C75.7697 52.4354 75.6225 52.3677 75.4732 52.3112L71.3707 51.1002L75.498 49.8808C75.6225 49.8327 75.7697 49.7647 75.9103 49.6876C76.0501 49.6105 76.1858 49.523 76.3135 49.4267C76.4418 49.3304 76.5636 49.2244 76.6762 49.1117C76.7896 48.9987 76.8956 48.8766 76.9919 48.7483C77.0875 48.621 77.1753 48.485 77.2531 48.3444C77.3302 48.2049 77.3979 48.058 77.4547 47.9081L78.6657 43.8055L79.8848 47.9332C79.9336 48.0584 80.0013 48.2052 80.078 48.3447C80.1558 48.4857 80.2433 48.6217 80.3393 48.749C80.4352 48.877 80.5416 48.9991 80.6546 49.1121C80.7676 49.2251 80.8893 49.3311 81.0173 49.4274C81.1453 49.5237 81.281 49.6112 81.4212 49.6886C81.5614 49.7657 81.7086 49.8337 81.8579 49.8902L85.9604 51.1006L81.8331 52.3199C81.7086 52.3681 81.5614 52.4361 81.4209 52.5132C81.281 52.5903 81.1453 52.6778 81.0177 52.7741C80.8893 52.8703 80.7676 52.9764 80.6549 53.089C80.5416 53.202 80.4355 53.3241 80.3393 53.4525C80.2437 53.5798 80.1558 53.7158 80.078 53.8564C80.003 53.9924 79.9367 54.1351 79.8809 54.2809L78.6657 58.3959Z" fill="#EFDB5D"/>
<mask id="path-15-outside-1_62_53" maskUnits="userSpaceOnUse" x="96.0795" y="46.0223" width="65" height="53" fill="black">
<rect fill="white" x="96.0795" y="46.0223" width="65" height="53"/>
<path d="M159.333 69.7422H157.607L151.726 51.2481C152.525 50.6395 152.883 49.5665 152.522 48.574C152.306 47.9822 151.874 47.5101 151.303 47.2443C150.733 46.9785 150.093 46.9505 149.502 47.1653C148.91 47.3807 148.438 47.813 148.171 48.3844C148.007 48.7356 147.945 49.1126 147.963 49.4889L132.683 55.0315C131.872 53.5542 130.302 52.5498 128.501 52.5498C125.872 52.5498 123.734 54.6888 123.734 57.3167C123.734 57.6378 123.767 57.9504 123.827 58.254L108.56 63.8295C108.332 63.5301 108.042 63.2811 107.691 63.1174C107.121 62.8523 106.48 62.823 105.889 63.0391C104.667 63.4833 104.036 64.8388 104.48 66.0601C104.647 66.519 104.945 66.8925 105.314 67.159L99.5046 85.4279H97.779C97.3929 85.4279 97.0795 85.7405 97.0795 86.1273V88.495C97.0795 90.35 98.589 91.8602 100.445 91.8602H112.944C114.799 91.8602 116.309 90.3507 116.309 88.495V86.1273C116.309 85.7405 115.995 85.4279 115.609 85.4279H113.884L108.073 67.1541C108.394 66.9219 108.659 66.619 108.831 66.2504C108.994 65.8986 109.057 65.5215 109.038 65.1445L124.302 59.5704C124.729 60.3636 125.375 61.0204 126.158 61.4639V85.4768C122.054 85.7419 118.779 89.0651 118.589 93.1885H116.486C116.1 93.1885 115.787 93.5012 115.787 93.888V97.7043C115.787 98.0911 116.1 98.4038 116.486 98.4038H140.516C140.903 98.4038 141.216 98.0911 141.216 97.7043V93.888C141.216 93.5012 140.903 93.1885 140.516 93.1885H138.413C138.223 89.0644 134.948 85.7412 130.844 85.4768V61.4639C132.29 60.6441 133.269 59.0934 133.269 57.316C133.269 56.9824 133.234 56.6571 133.168 56.3423L148.442 50.8032C148.614 51.0298 148.824 51.2222 149.07 51.374L143.229 69.7422H141.503C141.116 69.7422 140.804 70.0555 140.804 70.4416V72.8094C140.804 74.6644 142.313 76.1738 144.169 76.1738H156.668C158.523 76.1738 160.033 74.6644 160.033 72.8094V70.4416C160.032 70.0555 159.719 69.7422 159.333 69.7422ZM106.366 64.3541C106.473 64.3149 106.585 64.2961 106.694 64.2961C106.833 64.2961 106.97 64.3261 107.099 64.3863C107.332 64.494 107.507 64.6864 107.595 64.9263V64.927C107.681 65.1669 107.671 65.4271 107.563 65.6586C107.455 65.8909 107.262 66.0664 107.023 66.1539C106.527 66.3364 105.975 66.0776 105.794 65.5817C105.613 65.0858 105.871 64.5346 106.366 64.3541ZM114.91 88.4943C114.91 89.5785 114.028 90.4606 112.944 90.4606H100.445C99.3605 90.4606 98.4785 89.5785 98.4785 88.4943V86.8261H114.91V88.4943ZM100.973 85.4279L106.64 67.6074C106.66 67.6081 106.678 67.6116 106.697 67.6116C106.714 67.6116 106.732 67.6074 106.749 67.6074L112.415 85.4279H100.973ZM139.817 97.0055H117.186V94.5882H119.27H137.733H139.817V97.0055ZM137.023 93.1892H119.979C120.175 89.6604 123.107 86.8499 126.683 86.8499H126.858H130.144H130.318C133.895 86.8499 136.826 89.6604 137.023 93.1892ZM129.445 85.4509H127.558V61.9899C127.863 62.0514 128.178 62.0843 128.501 62.0843C128.824 62.0843 129.14 62.0514 129.445 61.9899V85.4509ZM128.501 60.6861C126.644 60.6861 125.133 59.1745 125.133 57.3174C125.133 55.4603 126.644 53.9494 128.501 53.9494C130.359 53.9494 131.87 55.4603 131.87 57.3174C131.87 59.1745 130.358 60.6861 128.501 60.6861ZM149.439 48.9748C149.548 48.7433 149.74 48.567 149.98 48.4796C150.087 48.4404 150.198 48.4215 150.309 48.4215C150.447 48.4215 150.584 48.4516 150.713 48.5117C150.945 48.6202 151.121 48.8118 151.208 49.0517C151.389 49.5484 151.132 50.0995 150.636 50.28C150.395 50.3681 150.136 50.3563 149.903 50.2485C149.672 50.1408 149.496 49.9492 149.409 49.7085C149.409 49.7078 149.408 49.7078 149.408 49.7071C149.32 49.4672 149.331 49.207 149.439 48.9748ZM150.418 51.751L156.139 69.7422H144.697L150.418 51.751ZM158.633 72.8094C158.633 73.8935 157.751 74.7756 156.667 74.7756H144.169C143.085 74.7756 142.203 73.8935 142.203 72.8094V71.1411H143.738C143.739 71.1411 143.739 71.1411 143.74 71.1411C143.741 71.1411 143.741 71.1411 143.742 71.1411H157.094C157.094 71.1411 157.095 71.1411 157.096 71.1411C157.096 71.1411 157.097 71.1411 157.098 71.1411H158.633V72.8094Z"/>
</mask>
<path d="M159.333 69.7422H157.607L151.726 51.2481C152.525 50.6395 152.883 49.5665 152.522 48.574C152.306 47.9822 151.874 47.5101 151.303 47.2443C150.733 46.9785 150.093 46.9505 149.502 47.1653C148.91 47.3807 148.438 47.813 148.171 48.3844C148.007 48.7356 147.945 49.1126 147.963 49.4889L132.683 55.0315C131.872 53.5542 130.302 52.5498 128.501 52.5498C125.872 52.5498 123.734 54.6888 123.734 57.3167C123.734 57.6378 123.767 57.9504 123.827 58.254L108.56 63.8295C108.332 63.5301 108.042 63.2811 107.691 63.1174C107.121 62.8523 106.48 62.823 105.889 63.0391C104.667 63.4833 104.036 64.8388 104.48 66.0601C104.647 66.519 104.945 66.8925 105.314 67.159L99.5046 85.4279H97.779C97.3929 85.4279 97.0795 85.7405 97.0795 86.1273V88.495C97.0795 90.35 98.589 91.8602 100.445 91.8602H112.944C114.799 91.8602 116.309 90.3507 116.309 88.495V86.1273C116.309 85.7405 115.995 85.4279 115.609 85.4279H113.884L108.073 67.1541C108.394 66.9219 108.659 66.619 108.831 66.2504C108.994 65.8986 109.057 65.5215 109.038 65.1445L124.302 59.5704C124.729 60.3636 125.375 61.0204 126.158 61.4639V85.4768C122.054 85.7419 118.779 89.0651 118.589 93.1885H116.486C116.1 93.1885 115.787 93.5012 115.787 93.888V97.7043C115.787 98.0911 116.1 98.4038 116.486 98.4038H140.516C140.903 98.4038 141.216 98.0911 141.216 97.7043V93.888C141.216 93.5012 140.903 93.1885 140.516 93.1885H138.413C138.223 89.0644 134.948 85.7412 130.844 85.4768V61.4639C132.29 60.6441 133.269 59.0934 133.269 57.316C133.269 56.9824 133.234 56.6571 133.168 56.3423L148.442 50.8032C148.614 51.0298 148.824 51.2222 149.07 51.374L143.229 69.7422H141.503C141.116 69.7422 140.804 70.0555 140.804 70.4416V72.8094C140.804 74.6644 142.313 76.1738 144.169 76.1738H156.668C158.523 76.1738 160.033 74.6644 160.033 72.8094V70.4416C160.032 70.0555 159.719 69.7422 159.333 69.7422ZM106.366 64.3541C106.473 64.3149 106.585 64.2961 106.694 64.2961C106.833 64.2961 106.97 64.3261 107.099 64.3863C107.332 64.494 107.507 64.6864 107.595 64.9263V64.927C107.681 65.1669 107.671 65.4271 107.563 65.6586C107.455 65.8909 107.262 66.0664 107.023 66.1539C106.527 66.3364 105.975 66.0776 105.794 65.5817C105.613 65.0858 105.871 64.5346 106.366 64.3541ZM114.91 88.4943C114.91 89.5785 114.028 90.4606 112.944 90.4606H100.445C99.3605 90.4606 98.4785 89.5785 98.4785 88.4943V86.8261H114.91V88.4943ZM100.973 85.4279L106.64 67.6074C106.66 67.6081 106.678 67.6116 106.697 67.6116C106.714 67.6116 106.732 67.6074 106.749 67.6074L112.415 85.4279H100.973ZM139.817 97.0055H117.186V94.5882H119.27H137.733H139.817V97.0055ZM137.023 93.1892H119.979C120.175 89.6604 123.107 86.8499 126.683 86.8499H126.858H130.144H130.318C133.895 86.8499 136.826 89.6604 137.023 93.1892ZM129.445 85.4509H127.558V61.9899C127.863 62.0514 128.178 62.0843 128.501 62.0843C128.824 62.0843 129.14 62.0514 129.445 61.9899V85.4509ZM128.501 60.6861C126.644 60.6861 125.133 59.1745 125.133 57.3174C125.133 55.4603 126.644 53.9494 128.501 53.9494C130.359 53.9494 131.87 55.4603 131.87 57.3174C131.87 59.1745 130.358 60.6861 128.501 60.6861ZM149.439 48.9748C149.548 48.7433 149.74 48.567 149.98 48.4796C150.087 48.4404 150.198 48.4215 150.309 48.4215C150.447 48.4215 150.584 48.4516 150.713 48.5117C150.945 48.6202 151.121 48.8118 151.208 49.0517C151.389 49.5484 151.132 50.0995 150.636 50.28C150.395 50.3681 150.136 50.3563 149.903 50.2485C149.672 50.1408 149.496 49.9492 149.409 49.7085C149.409 49.7078 149.408 49.7078 149.408 49.7071C149.32 49.4672 149.331 49.207 149.439 48.9748ZM150.418 51.751L156.139 69.7422H144.697L150.418 51.751ZM158.633 72.8094C158.633 73.8935 157.751 74.7756 156.667 74.7756H144.169C143.085 74.7756 142.203 73.8935 142.203 72.8094V71.1411H143.738C143.739 71.1411 143.739 71.1411 143.74 71.1411C143.741 71.1411 143.741 71.1411 143.742 71.1411H157.094C157.094 71.1411 157.095 71.1411 157.096 71.1411C157.096 71.1411 157.097 71.1411 157.098 71.1411H158.633V72.8094Z" fill="black"/>
<path d="M159.333 69.7422H157.607L151.726 51.2481C152.525 50.6395 152.883 49.5665 152.522 48.574C152.306 47.9822 151.874 47.5101 151.303 47.2443C150.733 46.9785 150.093 46.9505 149.502 47.1653C148.91 47.3807 148.438 47.813 148.171 48.3844C148.007 48.7356 147.945 49.1126 147.963 49.4889L132.683 55.0315C131.872 53.5542 130.302 52.5498 128.501 52.5498C125.872 52.5498 123.734 54.6888 123.734 57.3167C123.734 57.6378 123.767 57.9504 123.827 58.254L108.56 63.8295C108.332 63.5301 108.042 63.2811 107.691 63.1174C107.121 62.8523 106.48 62.823 105.889 63.0391C104.667 63.4833 104.036 64.8388 104.48 66.0601C104.647 66.519 104.945 66.8925 105.314 67.159L99.5046 85.4279H97.779C97.3929 85.4279 97.0795 85.7405 97.0795 86.1273V88.495C97.0795 90.35 98.589 91.8602 100.445 91.8602H112.944C114.799 91.8602 116.309 90.3507 116.309 88.495V86.1273C116.309 85.7405 115.995 85.4279 115.609 85.4279H113.884L108.073 67.1541C108.394 66.9219 108.659 66.619 108.831 66.2504C108.994 65.8986 109.057 65.5215 109.038 65.1445L124.302 59.5704C124.729 60.3636 125.375 61.0204 126.158 61.4639V85.4768C122.054 85.7419 118.779 89.0651 118.589 93.1885H116.486C116.1 93.1885 115.787 93.5012 115.787 93.888V97.7043C115.787 98.0911 116.1 98.4038 116.486 98.4038H140.516C140.903 98.4038 141.216 98.0911 141.216 97.7043V93.888C141.216 93.5012 140.903 93.1885 140.516 93.1885H138.413C138.223 89.0644 134.948 85.7412 130.844 85.4768V61.4639C132.29 60.6441 133.269 59.0934 133.269 57.316C133.269 56.9824 133.234 56.6571 133.168 56.3423L148.442 50.8032C148.614 51.0298 148.824 51.2222 149.07 51.374L143.229 69.7422H141.503C141.116 69.7422 140.804 70.0555 140.804 70.4416V72.8094C140.804 74.6644 142.313 76.1738 144.169 76.1738H156.668C158.523 76.1738 160.033 74.6644 160.033 72.8094V70.4416C160.032 70.0555 159.719 69.7422 159.333 69.7422ZM106.366 64.3541C106.473 64.3149 106.585 64.2961 106.694 64.2961C106.833 64.2961 106.97 64.3261 107.099 64.3863C107.332 64.494 107.507 64.6864 107.595 64.9263V64.927C107.681 65.1669 107.671 65.4271 107.563 65.6586C107.455 65.8909 107.262 66.0664 107.023 66.1539C106.527 66.3364 105.975 66.0776 105.794 65.5817C105.613 65.0858 105.871 64.5346 106.366 64.3541ZM114.91 88.4943C114.91 89.5785 114.028 90.4606 112.944 90.4606H100.445C99.3605 90.4606 98.4785 89.5785 98.4785 88.4943V86.8261H114.91V88.4943ZM100.973 85.4279L106.64 67.6074C106.66 67.6081 106.678 67.6116 106.697 67.6116C106.714 67.6116 106.732 67.6074 106.749 67.6074L112.415 85.4279H100.973ZM139.817 97.0055H117.186V94.5882H119.27H137.733H139.817V97.0055ZM137.023 93.1892H119.979C120.175 89.6604 123.107 86.8499 126.683 86.8499H126.858H130.144H130.318C133.895 86.8499 136.826 89.6604 137.023 93.1892ZM129.445 85.4509H127.558V61.9899C127.863 62.0514 128.178 62.0843 128.501 62.0843C128.824 62.0843 129.14 62.0514 129.445 61.9899V85.4509ZM128.501 60.6861C126.644 60.6861 125.133 59.1745 125.133 57.3174C125.133 55.4603 126.644 53.9494 128.501 53.9494C130.359 53.9494 131.87 55.4603 131.87 57.3174C131.87 59.1745 130.358 60.6861 128.501 60.6861ZM149.439 48.9748C149.548 48.7433 149.74 48.567 149.98 48.4796C150.087 48.4404 150.198 48.4215 150.309 48.4215C150.447 48.4215 150.584 48.4516 150.713 48.5117C150.945 48.6202 151.121 48.8118 151.208 49.0517C151.389 49.5484 151.132 50.0995 150.636 50.28C150.395 50.3681 150.136 50.3563 149.903 50.2485C149.672 50.1408 149.496 49.9492 149.409 49.7085C149.409 49.7078 149.408 49.7078 149.408 49.7071C149.32 49.4672 149.331 49.207 149.439 48.9748ZM150.418 51.751L156.139 69.7422H144.697L150.418 51.751ZM158.633 72.8094C158.633 73.8935 157.751 74.7756 156.667 74.7756H144.169C143.085 74.7756 142.203 73.8935 142.203 72.8094V71.1411H143.738C143.739 71.1411 143.739 71.1411 143.74 71.1411C143.741 71.1411 143.741 71.1411 143.742 71.1411H157.094C157.094 71.1411 157.095 71.1411 157.096 71.1411C157.096 71.1411 157.097 71.1411 157.098 71.1411H158.633V72.8094Z" stroke="black" stroke-width="0.796961" mask="url(#path-15-outside-1_62_53)"/>
</svg>
